<svg width="48" height="49" viewBox="0 0 48 49" fill="none" xmlns="http://www.w3.org/2000/svg">
<path d="M28.6667 0C29.9044 0 31.0914 0.491665 31.9666 1.36683C32.8417 2.242 33.3334 3.42899 33.3334 4.66667H40.3334C41.5711 4.66667 42.7581 5.15833 43.6332 6.0335C44.5084 6.90867 45.0001 8.09566 45.0001 9.33333V14C45.0006 15.0391 44.6543 16.0486 44.016 16.8686C43.3778 17.6886 42.4842 18.2721 41.4767 18.5267L47.1467 31.7473C47.3264 32.172 47.3497 32.655 47.3451 33.131L47.3334 33.8333C47.3342 35.6882 46.7036 37.4881 45.5453 38.9368C44.3869 40.3855 42.7699 41.3968 40.9604 41.8042C39.1508 42.2115 37.2564 41.9908 35.5891 41.1782C33.9217 40.3656 32.5805 39.0096 31.7864 37.3333H18.5471C17.7962 38.9197 16.5543 40.222 15.0053 41.0472C13.4563 41.8723 11.6826 42.1766 9.94718 41.9147C8.21172 41.6529 6.60679 40.8389 5.3702 39.5935C4.13361 38.348 3.33116 36.7373 3.08175 35H3.00008C2.38124 35 1.78775 34.7542 1.35017 34.3166C0.912581 33.879 0.666748 33.2855 0.666748 32.6667V14C0.666748 12.7623 1.15841 11.5753 2.03358 10.7002C2.90875 9.825 4.09574 9.33333 5.33341 9.33333H14.6667C15.9044 9.33333 17.0914 9.825 17.9666 10.7002C18.8417 11.5753 19.3334 12.7623 19.3334 14V18.6667C19.3334 19.9043 19.8251 21.0913 20.7003 21.9665C21.5754 22.8417 22.7624 23.3333 24.0001 23.3333C25.2378 23.3333 26.4247 22.8417 27.2999 21.9665C28.1751 21.0913 28.6667 19.9043 28.6667 18.6667V4.66667H24.0001C23.3812 4.66667 22.7878 4.42083 22.3502 3.98325C21.9126 3.54566 21.6667 2.95217 21.6667 2.33333C21.6667 1.71449 21.9126 1.121 22.3502 0.683417C22.7878 0.245833 23.3812 0 24.0001 0H28.6667ZM11.1667 30.3333C10.2385 30.3333 9.34825 30.7021 8.69187 31.3585C8.0355 32.0148 7.66675 32.9051 7.66675 33.8333C7.66675 34.7616 8.0355 35.6518 8.69187 36.3082C9.34825 36.9646 10.2385 37.3333 11.1667 37.3333C12.095 37.3333 12.9852 36.9646 13.6416 36.3082C14.298 35.6518 14.6667 34.7616 14.6667 33.8333C14.6667 32.9051 14.298 32.0148 13.6416 31.3585C12.9852 30.7021 12.095 30.3333 11.1667 30.3333ZM39.1667 30.3333C38.4745 30.3333 37.7978 30.5386 37.2223 30.9232C36.6467 31.3078 36.1981 31.8544 35.9332 32.4939C35.6683 33.1335 35.5989 33.8372 35.734 34.5162C35.869 35.1951 36.2024 35.8187 36.6919 36.3082C37.1814 36.7977 37.805 37.131 38.4839 37.2661C39.1629 37.4011 39.8666 37.3318 40.5061 37.0669C41.1457 36.802 41.6923 36.3534 42.0769 35.7778C42.4615 35.2023 42.6667 34.5256 42.6667 33.8333C42.6667 31.976 41.0311 30.3333 39.1667 30.3333ZM14.6667 14H5.33341V18.6667H14.6667V14ZM40.3334 9.33333H33.3334V14H40.3334V9.33333Z" fill="#59201A"/>
</svg>
