<svg width="24" height="24" viewBox="0 0 24 24" fill="none" xmlns="http://www.w3.org/2000/svg">
<g clip-path="url(#clip0_2791_21471)">
<path d="M3.08154 15.9364C3.13551 15.9413 3.18735 15.9583 3.23584 15.9823L3.23682 15.9813C3.38452 16.0423 3.51966 16.1307 3.63428 16.2421L3.63525 16.243C3.71853 16.3257 3.79988 16.4108 3.87842 16.4979L4.10693 16.7655L4.10986 16.7694V16.7704C4.21657 16.9126 4.34444 17.0681 4.4624 17.2323L4.57666 17.3993L4.58154 17.4071H4.58057C4.67036 17.5689 4.74948 17.7367 4.81689 17.9091L4.93506 18.161C5.05794 18.4102 5.19459 18.6524 5.34424 18.8866C5.42333 18.9759 5.46922 19.0899 5.46924 19.2098C5.46924 19.3382 5.41738 19.4601 5.32764 19.5516L5.32861 19.5526C5.28387 19.6 5.23023 19.6381 5.17041 19.6639C5.11042 19.6898 5.04531 19.703 4.97998 19.703C4.91461 19.703 4.84958 19.6898 4.78955 19.6639C4.73669 19.6411 4.68935 19.6081 4.64795 19.5682C4.25773 19.2971 3.91078 18.968 3.62061 18.5917C3.45408 18.3746 3.30883 18.1418 3.18604 17.8973L3.18408 17.8934C3.146 17.8118 3.11346 17.726 3.08447 17.6454C3.05481 17.5628 3.0291 17.4874 3.00049 17.4159L2.99854 17.411C2.82173 16.9199 2.70538 16.7091 2.64502 16.5858C2.61663 16.5278 2.58447 16.4603 2.58447 16.3837C2.58456 16.3076 2.61681 16.2419 2.64502 16.1854H2.64404C2.66976 16.1315 2.70658 16.0832 2.75146 16.0438C2.79634 16.0045 2.84902 15.9744 2.90576 15.9559C2.96238 15.9376 3.02227 15.931 3.08154 15.9364Z" fill="#FCF3D9" stroke="#FCF3D9" stroke-width="0.3"/>
<path d="M17.3901 15.7841L17.4741 15.8143L17.4761 15.8153C17.6151 15.884 17.7427 15.974 17.854 16.0819L17.855 16.0839C17.9382 16.1664 18.0197 16.2508 18.0981 16.3378L18.3267 16.6053L18.3296 16.6102C18.4719 16.8 18.6525 17.0131 18.7964 17.2391L18.8657 17.3563C18.9318 17.4778 18.9887 17.6101 19.0483 17.7518C19.1914 18.092 19.3647 18.4191 19.5659 18.7284C19.6394 18.8192 19.6787 18.9334 19.6753 19.0507C19.6715 19.1754 19.62 19.2944 19.5317 19.3827C19.4434 19.4708 19.3244 19.5216 19.1997 19.5253C19.0749 19.5289 18.9532 19.4852 18.8599 19.4022V19.4012C18.4732 19.1313 18.1293 18.805 17.8413 18.4315H17.8403C17.6738 18.2144 17.5286 17.9817 17.4058 17.7372L17.4038 17.7333C17.331 17.5772 17.2735 17.3878 17.2192 17.243L17.2163 17.2352L17.0122 16.5878C16.9356 16.5341 16.8765 16.4575 16.8452 16.368C16.806 16.2557 16.8133 16.1325 16.8647 16.0253L16.8657 16.0223C16.9199 15.9153 17.0139 15.8337 17.1274 15.7948C17.2126 15.7657 17.3041 15.7621 17.3901 15.7841Z" fill="#FCF3D9" stroke="#FCF3D9" stroke-width="0.3"/>
<path d="M5.37256 14.6604C5.48327 14.6564 5.60101 14.7001 5.71826 14.7727L5.7417 14.7864L5.7583 14.8088L5.85693 14.9368C5.92598 15.0105 6.03906 15.1282 6.146 15.2473C6.25462 15.3683 6.37038 15.5038 6.4292 15.6038C6.47501 15.6816 6.51293 15.7336 6.56494 15.8059C6.61755 15.879 6.68037 15.9681 6.76807 16.1125C6.85779 16.2604 6.92885 16.4131 6.99658 16.5559C7.06545 16.7012 7.13219 16.8381 7.21631 16.969H7.21533C7.28872 17.0598 7.32913 17.1731 7.32568 17.2903C7.322 17.4152 7.27046 17.534 7.18213 17.6223C7.09379 17.7107 6.97497 17.7622 6.8501 17.7659C6.7357 17.7692 6.62538 17.7304 6.53564 17.6604L6.29053 17.5081C6.05174 17.3476 5.83064 17.1616 5.63135 16.9534L5.62256 16.9446V16.9436C5.45785 16.7407 5.31458 16.5212 5.1958 16.2883L5.18799 16.2727L5.18408 16.2551C5.02003 15.579 4.97357 15.2547 4.98389 15.0823C4.98954 14.9878 5.01282 14.9191 5.05908 14.8645C5.07627 14.8442 5.09921 14.8242 5.10107 14.8225C5.10577 14.8181 5.10184 14.8216 5.09814 14.8284C5.1536 14.7267 5.25147 14.6649 5.37256 14.6604Z" fill="#FCF3D9" stroke="#FCF3D9" stroke-width="0.3"/>
<path d="M19.6367 14.5004C19.7472 14.4963 19.8625 14.5409 19.9785 14.6127L19.9775 14.6136C20.0065 14.6311 20.0254 14.652 20.0322 14.6605C20.0415 14.6721 20.0521 14.6869 20.0576 14.6947L20.1064 14.7543L20.1143 14.7621V14.7631L20.6738 15.4232L20.6826 15.433L20.6895 15.4437C20.7353 15.5216 20.7732 15.5736 20.8252 15.6459C20.8778 15.719 20.9406 15.8081 21.0283 15.9525C21.1174 16.0993 21.1905 16.2509 21.2607 16.3939C21.3318 16.5385 21.401 16.6756 21.4854 16.807C21.564 16.8962 21.6094 17.0106 21.6094 17.1302C21.6093 17.2598 21.5573 17.3842 21.4658 17.476L21.4619 17.4799C21.3677 17.5674 21.2438 17.6165 21.1152 17.6166C20.995 17.6166 20.8797 17.5724 20.7881 17.4955C20.4594 17.3031 20.1582 17.0673 19.8926 16.7943L19.8838 16.7855V16.7845C19.7213 16.5884 19.5808 16.375 19.4658 16.1478L19.459 16.1332L19.4541 16.1166C19.285 15.4501 19.234 15.1218 19.2412 14.9427C19.2451 14.8462 19.2664 14.7748 19.3096 14.7172C19.3279 14.6927 19.349 14.6737 19.3564 14.6664C19.3654 14.6576 19.3645 14.6576 19.3633 14.6595C19.4218 14.5676 19.5148 14.5049 19.6367 14.5004Z" fill="#FCF3D9" stroke="#FCF3D9" stroke-width="0.3"/>
<path d="M18.0801 11.6799C18.8806 11.6257 19.6844 11.6795 20.4697 11.8391L20.8057 11.9143L20.8086 11.9153C21.2179 12.0255 21.604 12.2077 21.9482 12.4534L22.0928 12.5627L22.1016 12.5686L22.1084 12.5764L22.2891 12.7668L22.4482 12.9407C23.2278 13.8226 23.7859 14.8794 24.0752 16.0227L24.0781 16.0325L24.0791 16.0432C24.1808 16.9359 24.1459 17.8382 23.9766 18.719L23.8955 19.095C23.8281 19.3726 23.7386 19.6451 23.6279 19.9084L23.627 19.9114C23.546 20.0907 23.4522 20.2649 23.3467 20.4309L23.3457 20.4319C23.2803 20.5327 23.1771 20.603 23.0596 20.6282C22.942 20.6533 22.8197 20.6309 22.7188 20.5657C22.6179 20.5004 22.5468 20.398 22.5215 20.2805C22.4963 20.1629 22.5187 20.0397 22.584 19.9387C22.6785 19.7877 22.7532 19.6252 22.8066 19.4553L22.8877 19.1702C22.9119 19.0748 22.933 18.9786 22.9521 18.8821C23.0903 18.1447 23.1238 17.3914 23.0508 16.6448V16.6428C22.9893 15.9535 22.7568 15.2904 22.375 14.7131H22.374C22.1168 14.3532 21.8143 14.0276 21.4736 13.7454L21.4717 13.7434C21.1756 13.4866 20.8211 13.306 20.4395 13.217L20.2031 13.1721C19.6503 13.0758 19.0882 13.041 18.5273 13.0696L18.5205 13.0706V13.0696C17.9275 13.0719 17.3411 13.1961 16.7979 13.4338C16.2158 13.7843 15.7214 14.2635 15.3525 14.8342C14.9819 15.4079 14.7482 16.0592 14.6689 16.7375L14.667 16.7512L14.5195 16.72L14.666 16.7512C14.5277 17.3997 14.6075 18.0759 14.8916 18.675C15.1757 19.2741 15.6487 19.7633 16.2383 20.0667H16.2373C16.5676 20.2281 16.9153 20.3509 17.2734 20.4338H17.2725C17.8492 20.5613 18.4339 20.6502 19.0225 20.7004H19.0234C19.4754 20.7406 19.9769 20.7892 20.458 20.7893C20.7567 20.7842 21.0542 20.7493 21.3457 20.6838C21.4745 20.6538 21.6102 20.6757 21.7227 20.7454C21.835 20.8149 21.9147 20.9265 21.9453 21.0549L21.9463 21.0588C21.9727 21.1836 21.9502 21.3142 21.8838 21.4231C21.8174 21.5316 21.7125 21.6111 21.5898 21.6448L21.5869 21.6458C21.2302 21.7371 20.8649 21.7918 20.4971 21.8098L20.4961 21.8088C19.9509 21.8584 19.4177 21.8098 18.9502 21.8098H18.9434C18.302 21.7806 17.6631 21.7061 17.0322 21.5872V21.5862C16.5857 21.5048 16.1492 21.3758 15.7314 21.1985L15.7285 21.1965C14.8676 20.8099 14.1597 20.148 13.7168 19.3147C13.2739 18.4814 13.1211 17.5239 13.2822 16.594C13.2938 16.5115 13.3155 16.4275 13.3311 16.3606C13.3452 16.3001 13.3533 16.2483 13.3564 16.2004C13.1052 15.7474 12.7175 14.9267 12.4814 14.4329C12.1404 14.4115 11.919 14.3917 11.752 14.385C11.568 14.3777 11.5122 14.3939 11.4844 14.4124C11.4558 14.4314 11.4272 14.4715 11.3643 14.6252C11.306 14.7674 11.227 14.9782 11.084 15.2668V15.2678C10.7124 16.0062 10.6548 16.3082 10.6445 16.4407C10.6419 16.4744 10.6418 16.4985 10.6416 16.5247C10.6414 16.5465 10.6417 16.5865 10.6289 16.6272C10.61 16.6872 10.5671 16.7272 10.5225 16.762C10.5639 17.5067 10.44 18.2515 10.1553 18.9417C9.861 19.655 9.40453 20.2897 8.82324 20.7971C8.19017 21.4091 7.41482 21.8536 6.56641 22.0891C5.71793 22.3246 4.82378 22.3439 3.96582 22.1458L3.95605 22.1438C2.94318 21.8362 2.02465 21.2771 1.28613 20.5188L1.14453 20.3782C0.454271 19.6626 0.0018054 18.749 -0.148438 17.7629L-0.149414 17.7542C-0.208233 17.1402 -0.123247 16.5207 0.0996094 15.9456C0.264592 15.4445 0.500172 14.97 0.797852 14.5354L0.929688 14.3499C0.963648 14.3028 1.0065 14.2625 1.05566 14.2317C1.10592 14.2002 1.16222 14.1789 1.2207 14.1692C1.27907 14.1595 1.33886 14.1616 1.39648 14.175C1.45182 14.188 1.50414 14.212 1.55078 14.2444H1.55176L1.55371 14.2454C1.55499 14.2463 1.55635 14.2474 1.55762 14.2483H1.55664C1.60528 14.2812 1.64763 14.3231 1.67969 14.3723C1.7127 14.4231 1.73419 14.4806 1.74414 14.5403C1.75407 14.6001 1.75212 14.6612 1.7373 14.72C1.72332 14.7754 1.69698 14.8264 1.66309 14.8723L1.66406 14.8733C1.38807 15.2858 1.17544 15.7377 1.0332 16.2131V16.2151C0.894448 16.66 0.860797 17.1312 0.936523 17.5911C1.12551 18.3919 1.57126 19.1091 2.20508 19.634L2.21094 19.6389C2.82079 20.1925 3.55874 20.5855 4.3584 20.7825C4.99077 20.908 5.64508 20.8759 6.26172 20.6877C6.87837 20.4996 7.43902 20.1616 7.89355 19.7043L7.89941 19.6985C8.35518 19.2901 8.69754 18.7698 8.89258 18.1897C9.08683 17.6117 9.12857 16.9935 9.01367 16.3948C8.83096 15.7712 8.52143 15.1921 8.10449 14.6936C7.68717 14.1948 7.17093 13.7873 6.58887 13.4973C5.9703 13.263 5.30388 13.1838 4.64746 13.2659C3.98842 13.3482 3.35977 13.591 2.81641 13.9729L2.81055 13.9768L2.80371 13.9807C2.69136 14.0443 2.55871 14.0615 2.43359 14.0295C2.30874 13.9977 2.20093 13.9192 2.13281 13.8098C2.09853 13.7551 2.07507 13.6938 2.06445 13.6301C2.05385 13.5663 2.05655 13.5007 2.07129 13.4377C2.08604 13.3749 2.11262 13.3153 2.15039 13.2629C2.18571 13.2139 2.22974 13.1719 2.28027 13.1389C2.95352 12.6421 3.73818 12.3173 4.56543 12.1917C5.28946 12.0817 6.02768 12.1272 6.73047 12.3245L7.0293 12.4182L7.03906 12.4211L7.03809 12.4221C8.27193 12.947 9.28757 13.8717 9.92871 15.0403C9.96476 14.9008 10.0053 14.7613 10.0469 14.6262C10.1496 14.2718 10.2869 13.9283 10.457 13.6008L10.4629 13.5881H10.4639C10.5561 13.4451 10.6735 13.3199 10.8105 13.219L10.8271 13.2073L10.8457 13.2004C11.1828 13.0696 11.5429 13.0078 11.9043 13.0198C12.2418 13.0184 12.5791 13.0386 12.9141 13.0803C13.0199 13.0911 13.1239 13.1193 13.2207 13.1624L13.3145 13.2102L13.332 13.22L13.3457 13.2336C13.5035 13.39 13.6198 13.5834 13.6836 13.7961L13.917 14.5706C14.4079 13.5663 15.1896 12.7288 16.165 12.1702L16.1748 12.1643L16.2402 12.3L16.1758 12.1643C16.7731 11.8808 17.4199 11.717 18.0801 11.6809V11.6799Z" fill="#FCF3D9" stroke="#FCF3D9" stroke-width="0.3"/>
<path d="M13.0605 4.64954L12.9053 4.88293L12.8887 4.9054L12.8838 4.91711L12.7803 4.87024V4.95032H12.7695V4.86536L12.6104 4.79407L12.6309 4.74426L12.668 4.64954H13.0605Z" fill="#FCF3D9" stroke="#FCF3D9" stroke-width="0.3"/>
<path d="M11.7427 7.1001C12.4782 7.06492 13.2104 7.19959 13.8833 7.4917L14.1685 7.62646L14.1753 7.63037C14.3118 7.71057 14.4299 7.81954 14.52 7.94971C14.6097 8.07929 14.6696 8.2271 14.6968 8.38232C14.7751 8.78988 14.8166 9.20366 14.8198 9.61865H14.8179C14.8219 9.67899 14.8164 9.73957 14.7983 9.79736C14.7791 9.859 14.748 9.9168 14.7065 9.96631C14.6651 10.0157 14.6144 10.0567 14.5571 10.0864C14.4998 10.1162 14.4369 10.1337 14.3726 10.1392L14.3716 10.1382C14.3077 10.1438 14.2433 10.1378 14.1821 10.1187C14.1206 10.0994 14.0636 10.0682 14.0142 10.0269C13.9646 9.98534 13.9229 9.93481 13.8931 9.87744C13.8633 9.82014 13.8458 9.75719 13.8403 9.69287V9.69189C13.8008 9.3958 13.761 9.13216 13.7222 8.92822C13.7114 8.87188 13.7038 8.81537 13.6968 8.76709C13.6895 8.71707 13.6826 8.67699 13.6753 8.64404C13.6727 8.63237 13.6686 8.62362 13.6665 8.6167C13.0862 8.39113 12.4576 8.31944 11.8413 8.40869H11.8374C11.3306 8.46915 10.8379 8.61486 10.3794 8.83838C10.3198 9.29774 10.3095 9.76161 10.3472 10.2231L10.813 10.1704C11.3542 10.1053 11.9 10.0821 12.4448 10.1001H12.4458C12.832 10.1154 13.2153 10.1739 13.5884 10.2749L13.7681 10.3276C13.8442 10.35 13.9336 10.3754 14.0249 10.3999C14.2089 10.4493 14.3823 10.4866 14.481 10.4888C14.5277 10.4795 14.5754 10.4775 14.6226 10.4839L14.6802 10.4956L14.688 10.4976L14.6958 10.5005C14.7977 10.5417 14.8796 10.6212 14.9253 10.7212C14.9709 10.8211 14.9774 10.9346 14.9419 11.0386L14.9409 11.0376C14.9116 11.131 14.8539 11.213 14.7749 11.271C14.6951 11.3295 14.5985 11.3596 14.4995 11.3589V11.3599H14.3364C14.2143 11.3492 13.9964 11.3126 13.7993 11.2808C13.6987 11.2645 13.6014 11.2491 13.52 11.2378C13.4361 11.2262 13.3783 11.2203 13.3501 11.2202H13.3403L13.3306 11.2183C13.0315 11.1794 12.7283 11.1795 12.4292 11.2183L12.4214 11.2192C11.9372 11.2579 11.4565 11.3338 10.9839 11.4458L10.98 11.4468C10.7093 11.5034 10.4442 11.5639 10.2085 11.6089C9.97263 11.6539 9.75184 11.6864 9.56396 11.6851C9.37952 11.6837 9.19656 11.6501 9.06592 11.5327C8.93273 11.413 8.88712 11.237 8.8999 11.0278C8.89401 10.9814 8.8945 10.9347 8.8999 10.8882C8.86072 10.2198 8.86032 9.54972 8.8999 8.88135C8.90649 8.52358 9.03474 8.17857 9.26416 7.90381L9.27783 7.88818L9.29443 7.87646C10.0138 7.3771 10.8671 7.10759 11.7427 7.10107V7.1001Z" fill="#FCF3D9" stroke="#FCF3D9" stroke-width="0.3"/>
<path d="M14.644 1.7605C15.0282 1.74617 15.4128 1.77699 15.7896 1.85327C16.0809 1.91071 16.3569 2.02722 16.6001 2.19604L16.7026 2.27222L16.7163 2.28394C16.88 2.44836 17.0066 2.64595 17.0884 2.86304C17.1997 3.13624 17.349 3.55037 17.5044 3.97437C17.5826 4.18761 17.6624 4.40399 17.7407 4.60815L17.9673 5.17065L17.9683 5.17261C17.9882 5.22112 18.0063 5.27552 18.022 5.32397C18.0346 5.36318 18.0464 5.39805 18.0571 5.42944L18.1353 5.52417C18.1685 5.56457 18.2108 5.59622 18.2573 5.61987H18.6597L18.6704 5.62183C18.8356 5.64503 18.998 5.68475 19.1548 5.74097L19.3101 5.80249L19.3169 5.80542L19.3247 5.8103C19.553 5.94134 19.7745 6.08377 19.9878 6.23804H19.9868C20.3819 6.51278 20.7079 6.87379 20.9409 7.29272L21.0356 7.47534V7.47729C21.3231 8.10481 21.5676 8.7514 21.7681 9.41187L22.188 10.4119C22.1889 10.4139 22.1902 10.4178 22.1919 10.4216C22.1953 10.4294 22.2002 10.441 22.2065 10.4558C22.2193 10.4855 22.2385 10.5288 22.2612 10.5837C22.3067 10.6936 22.3693 10.8502 22.4399 11.0369L22.4429 11.0437L22.4448 11.0515C22.5154 11.3182 22.5157 11.5361 22.4312 11.6882C22.3867 11.7681 22.3203 11.8257 22.2397 11.8562C22.1613 11.8858 22.0783 11.8868 22.0015 11.8708C21.8502 11.8394 21.7008 11.7397 21.5864 11.6052C21.4757 11.475 21.3916 11.3025 21.3657 11.1042L21.2134 10.7224L20.7534 9.72241L20.7476 9.70874C20.5386 9.09705 20.2912 8.49897 20.0063 7.9187C19.8471 7.61384 19.6116 7.35537 19.3228 7.1687L19.0063 6.96362C18.9208 6.90618 18.8521 6.86231 18.7798 6.82788C18.689 6.79634 18.5944 6.77647 18.4985 6.76929L18.4878 6.76831L18.478 6.76636C18.2125 6.70947 18.0839 6.70972 17.9399 6.70972H17.9146L17.8901 6.7019C17.6496 6.61771 17.427 6.48911 17.2329 6.32397L17.2241 6.31714L17.2163 6.30835C17.0038 6.06478 16.8352 5.78588 16.7192 5.48413V5.48315C16.439 4.92832 16.1033 4.01882 15.8726 3.48999L15.8687 3.4812C15.8531 3.43851 15.8276 3.39424 15.7964 3.33472C15.7824 3.30792 15.7675 3.27643 15.7554 3.24585C15.7544 3.24335 15.7535 3.24073 15.7524 3.23804C15.6751 3.20368 15.5951 3.17574 15.5122 3.15796C15.2315 3.12564 14.9481 3.12587 14.6675 3.15894L14.6587 3.15991H14.647C14.6455 3.16004 14.6436 3.16053 14.6411 3.16089C14.6353 3.16176 14.6273 3.16349 14.6177 3.16577C14.5979 3.17048 14.5735 3.17777 14.5444 3.18726C14.5155 3.19672 14.484 3.20757 14.4497 3.21948C14.4161 3.23115 14.38 3.24382 14.3433 3.25562C14.2768 3.27698 14.2019 3.29592 14.1294 3.3064C14.1351 3.33216 14.1423 3.35756 14.147 3.38354L14.1489 3.39136V3.39917C14.1793 3.83559 14.1793 4.27427 14.1489 4.71069C14.1301 5.01233 14.0463 5.30657 13.9019 5.57202L13.9009 5.573C13.7705 5.80762 13.5656 5.99183 13.3188 6.09741L13.3091 6.10229V6.10132C12.8158 6.27433 12.293 6.34904 11.771 6.32007V6.31909C11.3939 6.31567 11.0185 6.26812 10.6528 6.17554V6.17456C10.476 6.13116 10.3197 6.02801 10.2114 5.88159C10.1028 5.7345 10.0491 5.55337 10.0601 5.37085C10.0776 4.66639 10.107 4.17409 10.1265 3.83374C10.1363 3.66238 10.1434 3.53183 10.145 3.43237C10.1466 3.33597 10.142 3.28018 10.1353 3.2478C10.1266 3.248 10.1148 3.24919 10.0991 3.25073C10.0043 3.26008 9.80812 3.29956 9.54932 3.29956H9.54053C9.29076 3.28498 9.0403 3.28407 8.79053 3.29858C8.66462 3.30832 8.54164 3.34063 8.42627 3.39136C8.42517 3.39384 8.42537 3.39683 8.42432 3.39917C8.41277 3.42476 8.40468 3.44127 8.39502 3.46362C8.37683 3.50573 8.36973 3.53184 8.36963 3.54956V3.573L8.36279 3.59448C8.28378 3.84633 8.18986 4.19332 8.08936 4.5564C7.99018 4.91468 7.88347 5.28752 7.78271 5.59058L7.78369 5.59155C7.69462 5.90389 7.542 6.19441 7.33545 6.44507L7.32764 6.45386L7.31982 6.46167C7.13328 6.62807 6.91179 6.75212 6.67236 6.82397L6.66455 6.82593L6.65576 6.82788C6.46604 6.86083 6.27392 6.88019 6.08154 6.88843L6.08252 6.8894C5.98209 6.8981 5.88348 6.92121 5.78955 6.95776C5.59808 7.05839 5.4129 7.17085 5.23486 7.2937L5.229 7.29761C4.92815 7.48551 4.68364 7.75188 4.52295 8.06812V8.06909C4.23112 8.63384 3.97949 9.21857 3.771 9.81909L3.76709 9.83179L3.62939 9.77026L3.76611 9.83179L3.13818 11.2273C3.1379 11.2283 3.13749 11.2292 3.13721 11.2302L3.13623 11.2312C3.12143 11.282 3.10038 11.3311 3.06885 11.3738C3.0312 11.4247 2.98242 11.4667 2.92725 11.4978C2.8722 11.5288 2.81144 11.5486 2.74854 11.5544C2.68539 11.5603 2.62106 11.5525 2.56104 11.532L2.55029 11.5281C2.44261 11.482 2.35693 11.3962 2.31006 11.2888C2.26316 11.1812 2.25863 11.0594 2.29834 10.949L2.29932 10.947L2.85596 9.48608C3.0634 8.81206 3.31326 8.15149 3.60303 7.50854L3.60498 7.50464C3.84215 7.01811 4.20263 6.60182 4.65088 6.29858C4.86099 6.14467 5.07938 6.00236 5.3042 5.87085L5.31299 5.86499L5.32178 5.86108C5.51836 5.77933 5.72685 5.73001 5.93896 5.71265C6.13665 5.66589 6.25508 5.66155 6.35986 5.66089C6.41486 5.63587 6.46406 5.60154 6.50635 5.55835C6.51084 5.54988 6.517 5.54022 6.52197 5.53101C6.53425 5.50827 6.54839 5.48132 6.56201 5.4519C6.59128 5.38868 6.60986 5.33075 6.60986 5.28979V5.26831L6.61572 5.24683C6.71404 4.91743 6.81617 4.4826 6.9126 4.05933C7.00823 3.63954 7.09892 3.22857 7.17529 2.95874C7.23152 2.72467 7.35275 2.51094 7.5249 2.34253L7.53271 2.33472L7.5415 2.32886C7.79721 2.14308 8.08836 2.01132 8.39697 1.94312L8.40186 1.94214C8.7752 1.87212 9.15493 1.84213 9.53467 1.85034C9.79531 1.82473 10.058 1.82678 10.3179 1.85522L10.5767 1.89233L10.5884 1.89429V1.89526C10.7476 1.93816 10.896 2.01471 11.0229 2.11987C11.1181 2.19867 11.2 2.29191 11.2651 2.39624L11.3247 2.50464L11.3335 2.52222L11.3364 2.54077C11.4035 2.87945 11.4386 3.22384 11.4399 3.56909V4.72925C11.7184 4.74778 11.9979 4.74622 12.2759 4.72046L12.2896 4.71948H12.6069C12.6428 4.61775 12.6651 4.51194 12.6694 4.40405V2.84839H12.6704C12.6798 2.72525 12.7057 2.60386 12.7485 2.48804L12.7515 2.48022L12.7554 2.47241C12.8289 2.32564 12.9317 2.19548 13.0571 2.0896C13.1827 1.98366 13.3287 1.90396 13.4858 1.8562L13.4956 1.85327L13.4966 1.85425C13.8726 1.76795 14.259 1.73638 14.644 1.7605Z" fill="#FCF3D9" stroke="#FCF3D9" stroke-width="0.3"/>
</g>
<defs>
<clipPath id="clip0_2791_21471">
<rect width="24" height="24" fill="white"/>
</clipPath>
</defs>
</svg>
