<svg width="32" height="32" viewBox="0 0 32 32" fill="none" xmlns="http://www.w3.org/2000/svg">
<g clip-path="url(#clip0_4726_6178)">
<path d="M7.82617 19.5959C7.87679 19.6006 7.92517 19.6165 7.9707 19.6389L7.97168 19.6379C8.07443 19.6804 8.17043 19.7375 8.25684 19.8069L8.33984 19.8801L8.34082 19.8811C8.4173 19.957 8.49232 20.0345 8.56445 20.1145L8.77441 20.3606L8.77734 20.3645C8.90719 20.5376 9.07283 20.7349 9.20508 20.9426L9.20996 20.9504C9.29243 21.0991 9.36482 21.2531 9.42676 21.4114L9.53516 21.6418C9.64798 21.8706 9.77364 22.0929 9.91113 22.3079H9.91016C9.98295 22.3915 10.0253 22.4971 10.0254 22.6086C10.0254 22.7295 9.97706 22.8447 9.89258 22.9309L9.89355 22.9319C9.85127 22.9767 9.80069 23.013 9.74414 23.0374C9.68755 23.0618 9.62608 23.0735 9.56445 23.0735C9.50304 23.0734 9.44215 23.0616 9.38574 23.0374C9.33691 23.0163 9.2934 22.985 9.25488 22.9485C8.89568 22.6991 8.57664 22.3964 8.30957 22.05L8.30859 22.0491C8.15561 21.8496 8.02201 21.636 7.90918 21.4114L7.90723 21.4075C7.87206 21.3321 7.84299 21.2529 7.81641 21.179C7.78912 21.103 7.76538 21.0343 7.73926 20.969L7.7373 20.9641C7.5755 20.5146 7.46845 20.3223 7.41309 20.2092C7.38721 20.1564 7.3565 20.0923 7.35645 20.0188C7.35645 19.9446 7.38802 19.8804 7.41406 19.8284H7.41504C7.43923 19.7788 7.47216 19.7339 7.51367 19.6975C7.55604 19.6604 7.6056 19.6319 7.65918 19.6145C7.71284 19.5971 7.76999 19.5908 7.82617 19.5959Z" fill="#FCF3D9" stroke="#FCF3D9" stroke-width="0.3"/>
<path d="M20.9448 19.4564L21.0239 19.4857L21.0259 19.4867C21.1223 19.5344 21.2128 19.5929 21.2954 19.6615L21.3755 19.7328L21.3765 19.7347C21.4528 19.8105 21.5271 19.8883 21.5991 19.9681L21.8091 20.2142L21.812 20.2181C21.9417 20.3911 22.1076 20.5878 22.2397 20.7953H22.2407C22.3312 20.9361 22.3993 21.0949 22.4722 21.2679C22.603 21.5791 22.7618 21.8776 22.9458 22.1605H22.9448C23.0139 22.2461 23.0516 22.3529 23.0483 22.4633C23.0448 22.5808 22.9967 22.6926 22.9136 22.7758C22.8303 22.859 22.7178 22.9071 22.6001 22.9105C22.4884 22.9137 22.3804 22.8758 22.2944 22.8051C22.0236 22.6175 21.7754 22.3998 21.5552 22.1556L21.3442 21.9027C21.1911 21.7031 21.0567 21.4898 20.9438 21.265L20.9419 21.2611C20.8748 21.1174 20.8223 20.9415 20.7729 20.8099L20.77 20.8021L20.5854 20.2133C20.5143 20.1626 20.4594 20.0917 20.4302 20.0082C20.3931 19.902 20.3991 19.7853 20.4478 19.684L20.4497 19.681C20.5009 19.5801 20.5896 19.5028 20.6968 19.4662C20.7773 19.4388 20.8636 19.4356 20.9448 19.4564Z" fill="#FCF3D9" stroke="#FCF3D9" stroke-width="0.3"/>
<path d="M9.92432 18.4261C10.0033 18.4233 10.0856 18.4457 10.1675 18.4857L10.2485 18.5306L10.272 18.5453L10.2886 18.5668L10.3784 18.684C10.4416 18.7515 10.5452 18.8592 10.6431 18.9681C10.7425 19.0789 10.8492 19.2043 10.9038 19.2972C10.9455 19.3681 10.98 19.4153 11.0278 19.4818C11.0762 19.549 11.1337 19.6303 11.2144 19.7631C11.297 19.8992 11.3623 20.0395 11.4243 20.1703C11.4875 20.3035 11.5488 20.429 11.6255 20.5482H11.6245C11.6931 20.6336 11.7303 20.74 11.7271 20.85C11.7235 20.9675 11.6755 21.0793 11.5923 21.1625C11.5091 21.2457 11.3974 21.2937 11.2798 21.2972C11.1727 21.3004 11.0691 21.2647 10.9849 21.1996L10.7593 21.0599C10.5395 20.9123 10.3362 20.7408 10.1528 20.5492L10.144 20.5404V20.5394C9.99253 20.3527 9.86073 20.1501 9.75146 19.9359L9.74365 19.9203L9.73975 19.9037C9.58941 19.2841 9.54657 18.9848 9.55615 18.8246C9.56145 18.7361 9.58367 18.6703 9.62842 18.6176C9.64467 18.5984 9.66614 18.5797 9.66748 18.5785C9.66619 18.5801 9.66448 18.5829 9.6626 18.5863C9.71557 18.4894 9.80904 18.4305 9.92432 18.4261Z" fill="#FCF3D9" stroke="#FCF3D9" stroke-width="0.3"/>
<path d="M23 18.2795C23.1009 18.2759 23.2043 18.316 23.3076 18.3782L23.3105 18.3792C23.3136 18.381 23.3172 18.3821 23.3203 18.384L23.3193 18.386C23.3479 18.4033 23.3669 18.4232 23.373 18.4309C23.3818 18.4419 23.3906 18.4562 23.3955 18.4631L23.4395 18.5159L23.4473 18.5247L23.9609 19.1292L23.9688 19.1399L23.9756 19.1506C24.0173 19.2215 24.0518 19.2687 24.0996 19.3352C24.1479 19.4024 24.2055 19.4837 24.2861 19.6165C24.3681 19.7516 24.4357 19.8908 24.5 20.0217C24.5652 20.1543 24.6282 20.2799 24.7051 20.3997C24.7784 20.4835 24.8203 20.5903 24.8203 20.7024C24.8203 20.8246 24.7718 20.942 24.6855 21.0286L24.6816 21.0325C24.593 21.1148 24.4764 21.1603 24.3555 21.1604C24.2429 21.1604 24.1349 21.1198 24.0488 21.0481C23.7467 20.8712 23.4697 20.6545 23.2256 20.4036L23.2168 20.3948V20.3938C23.0673 20.2133 22.9379 20.017 22.832 19.8079L22.8252 19.7932L22.8213 19.7766C22.6663 19.1657 22.6182 18.8627 22.625 18.6965C22.6287 18.6066 22.6489 18.5391 22.6904 18.4836C22.708 18.4602 22.7278 18.4422 22.7344 18.4358C22.7426 18.4278 22.7411 18.428 22.7393 18.4309C22.7949 18.3436 22.8838 18.2838 23 18.2795Z" fill="#FCF3D9" stroke="#FCF3D9" stroke-width="0.3"/>
<path d="M21.5718 15.6947C22.412 15.6378 23.2565 15.7103 24.0747 15.9095H24.0776C24.5079 16.0253 24.9102 16.2283 25.2593 16.5052L25.2681 16.5121L25.2749 16.5199L25.4399 16.6937L25.4409 16.6947C26.1341 17.4303 26.6527 18.3102 26.9614 19.2689L27.0815 19.6849L27.0835 19.6947L27.0845 19.7045C27.1912 20.641 27.1345 21.5891 26.9165 22.5062V22.5072C26.8546 22.7622 26.772 23.0123 26.6704 23.2543L26.6694 23.2572C26.595 23.4221 26.5087 23.582 26.4116 23.7347L26.4106 23.7357C26.349 23.8309 26.252 23.8974 26.1411 23.9213C26.03 23.9451 25.9133 23.9244 25.8179 23.8627C25.7226 23.8009 25.6561 23.7032 25.6323 23.5922C25.6086 23.4812 25.6293 23.3652 25.6909 23.2699C25.777 23.1323 25.8453 22.9842 25.894 22.8295C25.9479 22.6571 25.9928 22.4822 26.0278 22.3051C26.154 21.6306 26.1845 20.9411 26.1177 20.2582L26.1167 20.2572C26.0605 19.6272 25.8485 19.0211 25.4995 18.4935H25.4985C25.2635 18.1648 24.9874 17.8676 24.6763 17.6097L24.6743 17.6078C24.4036 17.373 24.0791 17.2081 23.73 17.1273V17.1263C23.1561 17.0077 22.5691 16.9627 21.9839 16.9926L21.9771 16.9935C21.437 16.9957 20.9027 17.1069 20.4077 17.3226C19.8743 17.6431 19.4213 18.0822 19.0835 18.6049C18.7448 19.129 18.5309 19.7243 18.4585 20.3441L18.4575 20.3578L18.3101 20.3265L18.4565 20.3578C18.3303 20.9496 18.4024 21.5669 18.6616 22.1136C18.9209 22.6603 19.3531 23.1064 19.8911 23.3832H19.8901C20.1912 23.5303 20.5081 23.6424 20.8345 23.7181H20.8354C21.3636 23.8349 21.899 23.9172 22.438 23.9633H22.439C22.8533 24.0001 23.3122 24.0442 23.7524 24.0443C24.0256 24.0397 24.2974 24.0075 24.564 23.9476C24.6852 23.9194 24.8126 23.9408 24.9185 24.0062C24.9979 24.0554 25.0608 24.1266 25.0991 24.2103L25.1294 24.2972L25.1304 24.3011C25.1552 24.4186 25.1333 24.5414 25.0708 24.6439C25.0083 24.7463 24.9092 24.8212 24.7935 24.8529L24.7915 24.8539C24.4655 24.9374 24.1315 24.9865 23.7954 25.0033C23.2927 25.0498 22.7993 25.0052 22.3706 25.0052H22.3638V25.0043C21.7754 24.9775 21.1897 24.9093 20.6108 24.8002V24.8011C20.2004 24.7264 19.7996 24.6058 19.4155 24.4427L19.4126 24.4418C18.6211 24.0863 17.9703 23.4774 17.563 22.7113C17.1557 21.945 17.0145 21.0644 17.1626 20.2094C17.1733 20.133 17.1943 20.0553 17.2085 19.9945C17.221 19.941 17.2278 19.8955 17.231 19.8539C17.0014 19.4395 16.6492 18.6937 16.4331 18.2416C16.1244 18.2221 15.9248 18.2047 15.7729 18.1986C15.6036 18.1919 15.5554 18.2066 15.5337 18.2211C15.5112 18.2361 15.4871 18.2701 15.4292 18.4115C15.3759 18.5415 15.3026 18.7345 15.1714 18.9994V19.0004C14.8314 19.6759 14.7794 19.9514 14.77 20.0707C14.7677 20.1012 14.7673 20.1235 14.7671 20.1478C14.7669 20.1677 14.7678 20.2062 14.7554 20.2455C14.7376 20.3016 14.698 20.3393 14.6577 20.3715C14.6946 21.0535 14.5815 21.7354 14.3208 22.3676C14.0504 23.0231 13.6303 23.6062 13.0962 24.0726L13.0972 24.0736C12.5155 24.6359 11.8025 25.0437 11.0229 25.2601C10.2432 25.4766 9.42082 25.495 8.63232 25.3129L8.62256 25.3099C7.69233 25.0274 6.84873 24.5141 6.17041 23.8177L6.04053 23.6888C5.40582 23.031 4.98921 22.1912 4.85107 21.2845L4.8501 21.2758C4.79601 20.7111 4.87472 20.1416 5.07959 19.6127C5.23121 19.1522 5.44762 18.7162 5.72119 18.3168L5.84229 18.1469C5.87437 18.1024 5.91497 18.0646 5.96143 18.0355C6.00888 18.0058 6.06149 17.9852 6.1167 17.976C6.17201 17.9667 6.22909 17.9691 6.28369 17.9818C6.33809 17.9946 6.38969 18.0175 6.43506 18.0502L6.43408 18.0511C6.47974 18.0821 6.51914 18.1211 6.54932 18.1674C6.58061 18.2154 6.60239 18.27 6.61182 18.3265C6.62117 18.383 6.61897 18.441 6.60498 18.4965C6.59178 18.5487 6.56659 18.5967 6.53467 18.64L6.53662 18.641C6.28429 19.0181 6.08951 19.4309 5.95947 19.8656L5.9585 19.8666C5.83196 20.2722 5.80182 20.7022 5.87061 21.1215C6.02153 21.7616 6.35184 22.3435 6.81982 22.8002L7.02979 22.9886L7.03467 22.9926C7.59205 23.4985 8.2667 23.8584 8.99756 24.0385C9.5751 24.1531 10.1727 24.1233 10.7358 23.9515C11.2991 23.7796 11.8118 23.4708 12.2271 23.0531L12.2329 23.0472L12.3843 22.9027C12.7253 22.5548 12.9843 22.1337 13.1401 21.6703C13.3173 21.1433 13.3548 20.5795 13.2505 20.0336C13.0835 19.463 12.8009 18.9329 12.4194 18.4769C12.0381 18.0212 11.5665 17.6492 11.0347 17.3842C10.4697 17.1703 9.86073 17.0973 9.26123 17.1722C8.65923 17.2476 8.08471 17.4698 7.58838 17.8187L7.57666 17.8265C7.47091 17.8865 7.34581 17.9024 7.22803 17.8724C7.11016 17.8423 7.00797 17.7678 6.94385 17.6644C6.91189 17.6131 6.89034 17.5561 6.88037 17.4965C6.87038 17.4364 6.87235 17.3741 6.88623 17.3148C6.90012 17.2557 6.9259 17.2001 6.96143 17.1508C6.99702 17.1014 7.04143 17.0587 7.09326 17.0267C7.70978 16.5742 8.42691 16.2783 9.18311 16.1635C9.84838 16.0624 10.5266 16.1044 11.1724 16.2855L11.4478 16.3715L11.4565 16.3744V16.3754C12.5809 16.8537 13.5083 17.693 14.0981 18.7543C14.129 18.6362 14.1626 18.5181 14.1978 18.4037C14.2921 18.0781 14.4174 17.7621 14.5737 17.4613L14.5806 17.4496H14.5815C14.6669 17.317 14.7758 17.2013 14.9028 17.1078L14.9185 17.0951L14.937 17.0883C15.2476 16.9677 15.5796 16.9112 15.9126 16.9222C16.2224 16.921 16.5319 16.9396 16.8394 16.9779C16.9703 16.9912 17.0975 17.0322 17.2114 17.098L17.228 17.1078L17.2417 17.1215C17.3877 17.2661 17.495 17.4452 17.5542 17.642C17.6057 17.8094 17.6788 18.0543 17.7593 18.3217C18.1793 17.4758 18.8253 16.7608 19.6265 16.2562L19.8218 16.139L20.0308 16.0463C20.5202 15.8426 21.0414 15.7248 21.5718 15.6957V15.6947Z" fill="#FCF3D9" stroke="#FCF3D9" stroke-width="0.3"/>
<path d="M16.9951 9.24951L16.8398 9.48291L16.8281 9.49951L16.8213 9.51318L16.7148 9.46436V9.55029H16.7061V9.46045L16.5479 9.39014L16.5664 9.34424L16.6045 9.24951H16.9951Z" fill="#FCF3D9" stroke="#FCF3D9" stroke-width="0.3"/>
<path d="M15.7695 11.4963C16.5403 11.4605 17.307 11.6267 17.9932 11.9797L18.001 11.9836C18.1277 12.0581 18.2367 12.1597 18.3203 12.2805C18.4034 12.4005 18.4591 12.5372 18.4844 12.6809L18.5322 12.9631C18.5733 13.2457 18.5954 13.5309 18.5977 13.8167H18.5957C18.5994 13.8734 18.5951 13.9303 18.5781 13.9846C18.56 14.0428 18.5303 14.0971 18.4912 14.1438C18.4521 14.1905 18.4036 14.229 18.3496 14.2571C18.2956 14.2851 18.2364 14.3008 18.1758 14.3059H18.1748C18.1148 14.3112 18.0546 14.3053 17.9971 14.2874C17.939 14.2692 17.8846 14.2405 17.8379 14.2014C17.7912 14.1623 17.7527 14.1139 17.7246 14.0598C17.6966 14.0058 17.6799 13.9466 17.6748 13.886V13.885C17.6386 13.6141 17.6019 13.3731 17.5664 13.1868C17.5565 13.1348 17.5494 13.0825 17.543 13.0383C17.5362 12.9923 17.531 12.9557 17.5244 12.926C17.5228 12.919 17.5199 12.9134 17.5186 12.9084C16.9899 12.7039 16.4176 12.6387 15.8564 12.72L15.8525 12.7209C15.3917 12.7759 14.9435 12.9071 14.5264 13.1096C14.4731 13.5237 14.463 13.9417 14.4961 14.3577L14.9092 14.3108C15.2822 14.2658 15.6577 14.2424 16.0332 14.2405L16.4082 14.2454L16.4092 14.2463C16.7643 14.2604 17.1169 14.3136 17.46 14.4065C17.4969 14.4164 17.5573 14.4344 17.625 14.4543C17.6947 14.4749 17.7759 14.4993 17.8594 14.5217C18.0334 14.5684 18.1953 14.6028 18.2822 14.6028C18.3414 14.5925 18.4018 14.5925 18.46 14.6086L18.4678 14.6106L18.4766 14.6145C18.5727 14.6535 18.6502 14.7281 18.6934 14.8225C18.7356 14.9152 18.7404 15.0197 18.709 15.1165L18.71 15.1174C18.6827 15.2073 18.6275 15.2865 18.5518 15.342C18.4766 15.3972 18.3852 15.4256 18.292 15.425V15.426H18.1406V15.425C18.028 15.4152 17.8276 15.3819 17.6475 15.3528C17.5554 15.3379 17.4669 15.324 17.3926 15.3137C17.315 15.3029 17.262 15.2971 17.2373 15.2971H17.2275L17.2178 15.2961C16.9447 15.2607 16.6676 15.2607 16.3945 15.2961L16.3877 15.2971C15.9446 15.3325 15.5048 15.4016 15.0723 15.5042L15.0684 15.5051C14.8205 15.557 14.5766 15.6123 14.3604 15.6536C14.1438 15.6948 13.9402 15.7251 13.7666 15.7239C13.5966 15.7226 13.4259 15.691 13.3027 15.5803C13.1769 15.4672 13.1348 15.3023 13.1465 15.1086C13.1417 15.0696 13.1418 15.0306 13.1455 14.9915L13.125 14.5286C13.1113 14.0658 13.1181 13.6022 13.1455 13.1399C13.1518 12.8094 13.2715 12.4913 13.4834 12.2375L13.4961 12.2219L13.5127 12.2102C14.1757 11.7499 14.9624 11.5003 15.7695 11.4954V11.4963Z" fill="#FCF3D9" stroke="#FCF3D9" stroke-width="0.3"/>
<path d="M18.4248 6.60095C18.7774 6.58792 19.1307 6.61589 19.4766 6.68591L19.4756 6.68689C19.7061 6.73227 19.9265 6.81709 20.126 6.93884L20.3184 7.07263L20.3252 7.07849L20.332 7.08533C20.4831 7.23713 20.6002 7.41915 20.6758 7.61951C20.7779 7.87024 20.9152 8.25051 21.0576 8.63904C21.1293 8.83468 21.2027 9.03294 21.2744 9.22009L21.4814 9.73474L21.4824 9.73669C21.5009 9.78167 21.5179 9.83193 21.5322 9.87634C21.5436 9.91167 21.5539 9.94297 21.5635 9.97107L21.6338 10.056C21.6628 10.0912 21.6998 10.1182 21.7402 10.139H22.1064L22.1162 10.141C22.2687 10.1624 22.4188 10.1985 22.5635 10.2504L22.7061 10.308L22.7129 10.3109L22.7207 10.3148C22.9293 10.4346 23.1312 10.5656 23.3262 10.7064C23.6906 10.9595 23.9922 11.2928 24.207 11.6791L24.2939 11.847L24.2949 11.849C24.5585 12.4243 24.782 13.017 24.9658 13.6224L25.3496 14.5375C25.3498 14.538 25.3502 14.5395 25.3506 14.5404C25.3514 14.5423 25.353 14.5448 25.3545 14.5482C25.3576 14.5554 25.3623 14.5658 25.3682 14.5795C25.3798 14.6067 25.3962 14.6465 25.417 14.6967L25.582 15.1127L25.585 15.1195L25.5869 15.1273C25.6518 15.3726 25.653 15.5764 25.5732 15.7201C25.5311 15.7958 25.4674 15.8512 25.3906 15.8802C25.3163 15.9082 25.2379 15.9088 25.166 15.8939C25.0239 15.8644 24.8846 15.7708 24.7783 15.6459C24.6757 15.5252 24.5975 15.3657 24.5732 15.182L24.4346 14.8344L24.0127 13.9174L24.0068 13.9037C23.8155 13.3437 23.5888 12.7962 23.3281 12.265C23.1825 11.986 22.9669 11.7497 22.7021 11.5795V11.5785C22.5855 11.5083 22.4926 11.445 22.415 11.3929C22.3382 11.3414 22.2769 11.3027 22.2129 11.2719C22.13 11.2428 22.0437 11.2247 21.9561 11.2181L21.9463 11.2172L21.9355 11.2152C21.6932 11.1633 21.5759 11.1635 21.4443 11.1635H21.4189L21.3955 11.1547C21.1735 11.077 20.9672 10.9594 20.7881 10.807L20.7725 10.7914C20.5766 10.567 20.4214 10.3097 20.3145 10.0316V10.0306C20.0576 9.52168 19.7488 8.68752 19.5381 8.20447L19.5342 8.19568V8.1947C19.5203 8.15691 19.4983 8.11744 19.4697 8.06287C19.4568 8.03825 19.4421 8.00855 19.4307 7.97986C19.4303 7.97892 19.4301 7.9779 19.4297 7.97693C19.3613 7.94701 19.2908 7.92233 19.2178 7.90662C18.9615 7.87715 18.7025 7.87739 18.4463 7.90759L18.4375 7.90955H18.4229C18.4179 7.91028 18.4109 7.91141 18.4023 7.91345C18.3847 7.91765 18.3624 7.92433 18.3359 7.93298C18.3096 7.94158 18.2814 7.95139 18.25 7.96228C18.2191 7.97301 18.1853 7.98458 18.1514 7.99548C18.0945 8.01375 18.0308 8.03109 17.9678 8.04138C17.9719 8.06062 17.977 8.07963 17.9805 8.099L17.9824 8.10779V8.1156C18.0103 8.51615 18.0103 8.91818 17.9824 9.31873C17.9651 9.59709 17.8872 9.86867 17.7539 10.1136V10.1146C17.633 10.3322 17.4427 10.5031 17.2139 10.601L17.2041 10.6049C16.7526 10.7632 16.2746 10.8307 15.7969 10.8051C15.4479 10.8024 15.1 10.7589 14.7617 10.6732V10.6722C14.597 10.6317 14.4515 10.5352 14.3506 10.3988C14.2493 10.2616 14.1987 10.0925 14.209 9.92224C14.2251 9.27631 14.2527 8.82495 14.2705 8.51306C14.2795 8.35619 14.2856 8.23766 14.2871 8.14685C14.2884 8.06793 14.285 8.01918 14.2803 7.98962C14.2743 7.98995 14.2672 7.99173 14.2588 7.99255C14.1734 8.00099 13.9918 8.03748 13.7539 8.03748H13.7451C13.5159 8.02409 13.2859 8.02408 13.0566 8.03748L13.0557 8.0365C12.9446 8.04546 12.8364 8.07432 12.7344 8.11853L12.7334 8.12146C12.7228 8.14496 12.7157 8.15899 12.707 8.17908C12.6903 8.2178 12.6846 8.24067 12.6846 8.25427V8.27673L12.6777 8.29919C12.6054 8.52977 12.5199 8.8472 12.4277 9.18005C12.3362 9.51075 12.2386 9.85594 12.1455 10.1351C12.0631 10.4208 11.9235 10.6869 11.7344 10.9164L11.7266 10.9252L11.7178 10.933C11.5455 11.0866 11.3412 11.2006 11.1201 11.267L11.1123 11.2699L11.1025 11.2709C10.9269 11.3014 10.7494 11.3201 10.5713 11.3275C10.4826 11.3357 10.3955 11.3568 10.3125 11.389C10.1376 11.481 9.96831 11.5834 9.80566 11.6957L9.7998 11.6996C9.52597 11.8706 9.30351 12.1129 9.15723 12.4008V12.4017C8.88995 12.9189 8.6597 13.4553 8.46875 14.0052L8.46484 14.0179L8.46289 14.017L7.88672 15.3002C7.87272 15.3476 7.85271 15.3931 7.82324 15.433C7.7878 15.481 7.74236 15.5208 7.69043 15.5502C7.6383 15.5796 7.58009 15.5983 7.52051 15.6039C7.46087 15.6094 7.40044 15.6017 7.34375 15.5824L7.33301 15.5795V15.5785C7.23134 15.535 7.14967 15.4543 7.10547 15.3529C7.06126 15.2514 7.05824 15.1368 7.0957 15.0326L7.09668 15.0297L7.60938 13.682C7.79911 13.067 8.02654 12.4641 8.29102 11.8773L8.29297 11.8734C8.51211 11.4239 8.84598 11.0396 9.26074 10.7601C9.45217 10.6202 9.65077 10.4902 9.85547 10.3705L9.86426 10.3656L9.87402 10.3617C10.0573 10.2855 10.2514 10.2386 10.4492 10.223C10.6247 10.1821 10.7318 10.1778 10.8262 10.1771C10.8742 10.1551 10.917 10.1249 10.9541 10.0873C10.9581 10.0798 10.9636 10.0716 10.9678 10.0638C10.9789 10.0431 10.9916 10.019 11.0039 9.99255C11.0306 9.93495 11.0469 9.88371 11.0469 9.849V9.82751L11.0527 9.80603C11.1427 9.50454 11.2358 9.10623 11.3242 8.71814C11.4118 8.33371 11.4953 7.95711 11.5654 7.70935C11.6175 7.49246 11.7292 7.29411 11.8887 7.13806L11.8965 7.13123L11.9062 7.12439C12.142 6.95315 12.4108 6.83177 12.6953 6.76892L12.6992 6.76794C13.0467 6.70278 13.4005 6.67538 13.7539 6.68396C13.9887 6.66188 14.2249 6.66229 14.459 6.68787L14.6973 6.72205L14.71 6.72498L14.8184 6.76111C14.9248 6.80245 15.024 6.86084 15.1123 6.93396C15.2005 7.00699 15.2765 7.09314 15.3369 7.18982L15.3926 7.29041L15.4004 7.30798L15.4043 7.32654C15.466 7.63787 15.4978 7.95447 15.499 8.27185V9.32361C15.7498 9.33969 16.0016 9.33802 16.252 9.31482L16.2656 9.31384H16.5479C16.5785 9.22426 16.5978 9.13124 16.6016 9.0365V7.60974L16.627 7.4408C16.6392 7.38494 16.6549 7.3295 16.6748 7.27576L16.6777 7.26892L16.6816 7.26111C16.7498 7.12496 16.8446 7.00384 16.9609 6.90564C17.0773 6.80747 17.2128 6.73409 17.3584 6.68982L17.3691 6.68689L17.6309 6.63708C17.8932 6.59655 18.1594 6.58431 18.4248 6.60095Z" fill="#FCF3D9" stroke="#FCF3D9" stroke-width="0.3"/>
</g>
<defs>
<clipPath id="clip0_4726_6178">
<rect width="22" height="22" fill="white" transform="translate(5 5)"/>
</clipPath>
</defs>
</svg>
