<svg width="20" height="20" viewBox="0 0 20 20" fill="none" xmlns="http://www.w3.org/2000/svg">
<path d="M11.3392 9.25495C11.5676 9.72828 11.7017 9.78411 12.1126 9.60245C13.1859 9.12078 11.5992 6.83078 10.4234 7.16245C10.0517 7.26495 9.40423 7.59661 10.1942 7.98411C10.6601 8.20495 11.0384 8.63078 11.3384 9.25495H11.3392ZM10.5501 12.7999C8.75673 11.9158 8.41757 12.5316 8.41757 12.8866C8.41757 13.1949 8.14923 13.3208 7.47007 12.4841C6.2784 11.0158 6.14423 10.6441 6.76757 10.5099C7.9759 10.2499 8.02257 9.35745 6.9334 7.41495C6.1284 5.97828 5.22007 5.37828 4.2884 5.66245C3.53007 5.89161 2.67007 7.15411 2.47257 8.33078C2.25923 9.60995 2.74923 10.3283 2.96257 10.8416C3.7209 12.6333 6.3409 15.8791 7.5259 16.4791C10.1626 17.8208 13.0442 17.4266 12.8784 15.7366C12.7676 14.5841 12.0817 13.5574 10.5501 12.7999ZM10.3284 16.2333C6.96507 16.1791 3.3809 11.3783 3.3809 8.78911C3.3809 7.34411 4.41423 5.52828 4.81007 6.24745C4.81757 6.25495 6.5859 9.19995 6.72007 9.72078C6.76007 9.87911 6.72007 9.91828 6.3809 10.0291C5.35423 10.3683 5.22007 10.8966 5.8359 12.1599C6.85423 14.2599 8.9859 14.9866 9.12757 13.2974C9.20757 12.4049 9.7759 12.6341 11.1176 14.3941C12.2626 15.9108 11.9234 16.2574 10.3284 16.2341V16.2333Z" fill="#310909"/>
<path d="M10.0046 5.15001C9.23877 5.52834 9.27127 5.71001 10.1154 5.86001C12.1046 6.20751 13.7788 8.20501 13.7788 10.2342C13.7788 11.1425 14.5129 11.4892 14.9954 9.91751C15.6579 7.74667 11.9396 4.18751 10.0046 5.15001Z" fill="#310909"/>
<path d="M10.5016 2.86003C9.57823 3.19169 9.65739 3.56253 10.6757 3.63336C14.0391 3.87086 16.7391 7.54169 16.0841 10.9834C15.9341 11.7892 16.6366 12.1442 17.2991 10.7392C18.8707 7.41503 13.8966 1.66003 10.5016 2.86003Z" fill="#310909"/>
</svg>
