<svg width="14" height="14" viewBox="0 0 14 14" fill="none" xmlns="http://www.w3.org/2000/svg">
<path d="M6.99967 0.333328C3.31967 0.333328 0.333008 3.31999 0.333008 7C0.333008 10.68 3.31967 13.6667 6.99967 13.6667C10.6797 13.6667 13.6663 10.68 13.6663 7C13.6663 3.31999 10.6797 0.333328 6.99967 0.333328ZM9.35301 8.64664C9.54634 8.83998 9.54634 9.16002 9.35301 9.35335C9.25301 9.45335 9.12634 9.5 8.99967 9.5C8.87301 9.5 8.74634 9.45335 8.64634 9.35335L6.99967 7.70666L5.35301 9.35335C5.25301 9.45335 5.12634 9.5 4.99967 9.5C4.87301 9.5 4.74634 9.45335 4.64634 9.35335C4.45301 9.16002 4.45301 8.83998 4.64634 8.64664L6.29301 7L4.64634 5.35335C4.45301 5.16001 4.45301 4.83998 4.64634 4.64664C4.83968 4.45331 5.15967 4.45331 5.35301 4.64664L6.99967 6.29333L8.64634 4.64664C8.83968 4.45331 9.15967 4.45331 9.35301 4.64664C9.54634 4.83998 9.54634 5.16001 9.35301 5.35335L7.70634 7L9.35301 8.64664Z" fill="#A4A7AE"/>
</svg>
