<svg width="24" height="24" viewBox="0 0 24 24" fill="none" xmlns="http://www.w3.org/2000/svg">
<path d="M12.0007 13.6333L15.384 17.0166C15.5979 17.2305 15.8701 17.3374 16.2007 17.3374C16.5312 17.3374 16.8034 17.2305 17.0173 17.0166C17.2312 16.8027 17.3382 16.5305 17.3382 16.1999C17.3382 15.8694 17.2312 15.5971 17.0173 15.3833L13.634 11.9999L17.0173 8.61659C17.2312 8.4027 17.3382 8.13047 17.3382 7.79992C17.3382 7.46936 17.2312 7.19714 17.0173 6.98325C16.8034 6.76936 16.5312 6.66242 16.2007 6.66242C15.8701 6.66242 15.5979 6.76936 15.384 6.98325L12.0007 10.3666L8.61732 6.98325C8.40343 6.76936 8.13121 6.66242 7.80065 6.66242C7.4701 6.66242 7.19787 6.76936 6.98399 6.98325C6.7701 7.19714 6.66315 7.46936 6.66315 7.79992C6.66315 8.13047 6.7701 8.4027 6.98399 8.61659L10.3673 11.9999L6.98399 15.3833C6.7701 15.5971 6.66315 15.8694 6.66315 16.1999C6.66315 16.5305 6.7701 16.8027 6.98399 17.0166C7.19787 17.2305 7.4701 17.3374 7.80065 17.3374C8.13121 17.3374 8.40343 17.2305 8.61732 17.0166L12.0007 13.6333ZM12.0007 23.6666C10.3868 23.6666 8.8701 23.3601 7.45065 22.7473C6.03121 22.1344 4.79649 21.3033 3.74649 20.2541C2.69649 19.2049 1.86543 17.9701 1.25332 16.5499C0.641208 15.1297 0.334764 13.613 0.333986 11.9999C0.333208 10.3868 0.639653 8.87014 1.25332 7.44992C1.86699 6.0297 2.69804 4.79497 3.74649 3.74575C4.79493 2.69653 6.02965 1.86547 7.45065 1.25259C8.87165 0.639697 10.3883 0.333252 12.0007 0.333252C13.613 0.333252 15.1297 0.639697 16.5507 1.25259C17.9717 1.86547 19.2064 2.69653 20.2548 3.74575C21.3033 4.79497 22.1347 6.0297 22.7492 7.44992C23.3636 8.87014 23.6697 10.3868 23.6673 11.9999C23.665 13.613 23.3585 15.1297 22.748 16.5499C22.1374 17.9701 21.3064 19.2049 20.2548 20.2541C19.2033 21.3033 17.9685 22.1348 16.5507 22.7484C15.1328 23.3621 13.6161 23.6681 12.0007 23.6666Z" fill="#DEE1E6"/>
</svg>
