<svg width="11" height="11" viewBox="0 0 11 11" fill="none" xmlns="http://www.w3.org/2000/svg">
<path fill-rule="evenodd" clip-rule="evenodd" d="M3.8314 1.46889e-06C3.68418 -1.60311e-05 3.54079 -3.35937e-05 3.41937 0.00988891C3.28602 0.0207856 3.12868 0.0464873 2.97035 0.127162C2.75083 0.239016 2.57235 0.417493 2.4605 0.637013C2.37982 0.795347 2.35412 0.95269 2.34322 1.08604C2.3333 1.20746 2.33332 1.35084 2.33333 1.49805L2.33334 2.33333H1.49807C1.35084 2.33332 1.20746 2.3333 1.08604 2.34322C0.95269 2.35412 0.795347 2.37982 0.637013 2.4605C0.417493 2.57235 0.239016 2.75083 0.127162 2.97035C0.0464873 3.12868 0.0207856 3.28602 0.00988891 3.41937C-3.35937e-05 3.54079 -1.60311e-05 3.68417 1.46889e-06 3.83139V9.00194C-1.60311e-05 9.14918 -3.35937e-05 9.29256 0.00988891 9.41395C0.0207856 9.5473 0.0464931 9.70469 0.127162 9.863C0.239016 10.0825 0.417493 10.261 0.637013 10.3728C0.795347 10.4535 0.95269 10.4792 1.08604 10.4901C1.20747 10.5001 1.35085 10.5 1.49807 10.5H6.66861C6.81584 10.5 6.95923 10.5001 7.08062 10.4901C7.21397 10.4792 7.37135 10.4535 7.52967 10.3728C7.74918 10.261 7.92768 10.0825 8.0395 9.863C8.12018 9.70469 8.1459 9.5473 8.15681 9.41395C8.16673 9.29256 8.16667 9.14918 8.16667 9.00194V8.16667H9.00194C9.14918 8.16667 9.29256 8.16673 9.41395 8.15681C9.5473 8.1459 9.70469 8.12018 9.863 8.0395C10.0825 7.92768 10.261 7.74918 10.3728 7.52967C10.4535 7.37135 10.4792 7.21397 10.4901 7.08062C10.5001 6.95923 10.5 6.81584 10.5 6.66861V1.49807C10.5 1.35085 10.5001 1.20747 10.4901 1.08604C10.4792 0.95269 10.4535 0.795347 10.3728 0.637013C10.261 0.417493 10.0825 0.239016 9.863 0.127162C9.70469 0.0464873 9.5473 0.0207856 9.41395 0.00988891C9.29256 -3.35937e-05 9.14918 -1.60311e-05 9.00194 1.46889e-06H3.8314ZM8.16667 7H8.98334C9.15629 7 9.25097 6.99954 9.31899 6.99399L9.32669 6.99335L9.32733 6.98565C9.33287 6.91764 9.33333 6.82296 9.33333 6.65V1.51667C9.33333 1.3437 9.33287 1.24905 9.32733 1.18104L9.32669 1.17335L9.31899 1.17268C9.25097 1.16712 9.15629 1.16667 8.98334 1.16667H3.85001C3.67703 1.16667 3.58238 1.16712 3.51437 1.17268L3.50668 1.17335L3.50602 1.18104C3.50046 1.24905 3.50001 1.3437 3.50001 1.51667V2.33333H6.66861C6.81584 2.33332 6.95923 2.3333 7.08062 2.34322C7.21397 2.35412 7.37135 2.37982 7.52967 2.4605C7.74918 2.57235 7.92768 2.75083 8.0395 2.97035C8.12018 3.12868 8.1459 3.28602 8.15681 3.41937C8.16673 3.5408 8.16667 3.68418 8.16667 3.8314V7Z" fill="#FFC247"/>
</svg>
