<svg width="161" height="160" viewBox="0 0 161 160" fill="none" xmlns="http://www.w3.org/2000/svg">
<circle cx="80.2854" cy="82.6569" r="50.1135" fill="#FFF9E9" stroke="#FFC247" stroke-width="0.058625"/>
<circle cx="33.2854" cy="48.7998" r="3.14102" fill="#FFF9E9" stroke="#FFC247" stroke-width="0.0036745"/>
<circle cx="97.7126" cy="26.6569" r="5.85372" fill="#FFF9E9" stroke="#FFC247" stroke-width="0.00684794"/>
<circle cx="37.9992" cy="122.657" r="5.56817" fill="#FFF9E9" stroke="#FFC247" stroke-width="0.00651389"/>
<circle cx="133.999" cy="109.514" r="5.56817" fill="#FFF9E9" stroke="#FFC247" stroke-width="0.00651389"/>
<circle cx="123.142" cy="115.8" r="2.7127" fill="#FFF9E9" stroke="#FFC247" stroke-width="0.00317343"/>
<path d="M83.1572 34.915C83.0332 34.8885 83.0332 34.7111 83.1572 34.6846L85.6621 34.1523C85.7375 34.1363 85.7961 34.0772 85.8125 34.002L86.3516 31.5146C86.3786 31.3915 86.555 31.3915 86.582 31.5146L87.1211 34.002C87.1374 34.0773 87.197 34.1363 87.2725 34.1523L89.7764 34.6846C89.9006 34.711 89.9006 34.8886 89.7764 34.915L87.2725 35.4473C87.197 35.4633 87.1374 35.5223 87.1211 35.5977L86.582 38.085C86.555 38.2081 86.3786 38.2081 86.3516 38.085L85.8125 35.5977C85.7961 35.5224 85.7375 35.4634 85.6621 35.4473L83.1572 34.915Z" fill="#FFCBC2" stroke="#FFC247" stroke-width="0.0784314"/>
<path d="M26.0605 86.1504C26.0925 85.9994 26.3079 85.9994 26.3398 86.1504L27.2949 90.6621C27.3298 90.827 27.4584 90.9562 27.623 90.9922L32.0889 91.9648C32.2388 91.9975 32.2388 92.2115 32.0889 92.2441L27.623 93.2168C27.4584 93.2527 27.3298 93.382 27.2949 93.5469L26.3398 98.0586C26.3079 98.2096 26.0925 98.2096 26.0605 98.0586L25.1055 93.5469C25.0705 93.3819 24.9421 93.2527 24.7773 93.2168L20.3115 92.2441C20.162 92.2113 20.162 91.9977 20.3115 91.9648L24.7773 90.9922C24.9421 90.9563 25.0705 90.8271 25.1055 90.6621L26.0605 86.1504Z" fill="#FFCBC2" stroke="#FFC247" stroke-width="0.285714"/>
<path d="M125.237 50.1504C125.269 49.9994 125.485 49.9994 125.517 50.1504L126.074 52.7822C126.109 52.9472 126.238 53.0764 126.402 53.1123L129.015 53.6816C129.165 53.7143 129.165 53.9283 129.015 53.9609L126.402 54.5293C126.238 54.5652 126.109 54.6946 126.074 54.8594L125.517 57.4922C125.484 57.6429 125.269 57.643 125.237 57.4922L124.681 54.8594C124.646 54.6946 124.517 54.5653 124.353 54.5293L121.739 53.9609C121.59 53.9281 121.59 53.7146 121.739 53.6816L124.353 53.1123C124.517 53.0763 124.646 52.9471 124.681 52.7822L125.237 50.1504Z" fill="#FFCBC2" stroke="#FFC247" stroke-width="0.285714"/>
<path d="M137.351 96.4859L137.37 96.5767L137.46 96.5963L140.893 97.3443L137.46 98.0923L137.37 98.1119L137.351 98.2017L136.615 101.675L135.88 98.2017L135.861 98.1119L135.771 98.0923L132.337 97.3443L135.771 96.5963L135.861 96.5767L135.88 96.4859L136.615 93.0113L137.351 96.4859Z" fill="white" stroke="#FFC247" stroke-width="0.285714"/>
<path d="M108.714 59.9426L41.1426 85.7998L55.5711 125.943L64.2854 129.8L75.1426 132.085L86.1426 131.657L92.5712 130.514L98.2854 128.8L107.714 123.943L115.714 117.657L116.332 116.859C119.818 112.352 122.909 107.552 125.571 102.514L108.714 59.9426Z" fill="#FFF9E9" stroke="#FFC247" stroke-width="0.285714"/>
<path d="M46.2835 74.3727L39.1406 70.3727L101.141 46.9441L97.8549 55.087L100.283 62.6584L48.9978 82.2298L46.2835 74.3727Z" fill="#FFDBD4" stroke="#FFC247" stroke-width="1.14286"/>
<path d="M55.2832 125.801C61.5351 128.997 68.3036 131.062 75.2753 131.898L75.4495 131.919L80.4201 131.919C84.1434 131.919 87.8561 131.523 91.4955 130.737L92.7277 130.471C96.6189 129.631 100.376 128.259 103.893 126.394C106.637 124.939 109.217 123.193 111.588 121.187L112.357 120.536C114.415 118.794 116.325 116.885 118.066 114.827C120.504 111.946 122.598 108.791 124.306 105.425L125.855 102.372" stroke="#FFC247" stroke-width="1.14286"/>
<path d="M40.5918 85.2052L55.5685 126.077" stroke="#FFC247" stroke-width="1.14286"/>
<path d="M109.307 59.9197L125.737 102.851" stroke="#FFC247" stroke-width="1.14286"/>
<path d="M38.0206 70.4909L102.019 46.4429" stroke="#FFC247" stroke-width="1.14286"/>
<path d="M40.2608 85.9415L108.406 59.6615L98.3599 54.996C98.0715 54.8621 97.9479 54.5183 98.085 54.2314L101.584 46.9109" stroke="#FFC247" stroke-width="1.14286"/>
<path d="M38.5953 70.2938L45.7988 74.1559C46.0727 74.3027 46.179 74.6414 46.0383 74.9184L40.5926 85.634" stroke="#FFC247" stroke-width="1.14286"/>
<path d="M38.3066 69.7766L42.9482 81.3789" stroke="#FFC247" stroke-width="1.14286"/>
<path d="M46.1406 74.8011L48.9978 82.8011" stroke="#FFC247" stroke-width="1.14286"/>
<path d="M98.1406 54.8011L100.998 63.0868" stroke="#FFC247" stroke-width="1.14286"/>
<path d="M101.635 47.0447L105.736 58.3482" stroke="#FFC247" stroke-width="1.14286"/>
<circle cx="67.4258" cy="82.0868" r="3" fill="#FFDBD4"/>
<circle cx="67.4258" cy="82.0868" r="3" stroke="#FFC247"/>
<circle cx="63.1409" cy="66.6583" r="2.14286" fill="#FFF9E9"/>
<circle cx="63.1409" cy="66.6583" r="2.14286" stroke="#FFC247"/>
<circle cx="86.2832" cy="74.9441" r="3" fill="#FFDBD4"/>
<circle cx="86.2832" cy="74.9441" r="3" stroke="#FFC247"/>
<circle cx="76.2835" cy="61.8013" r="2.14286" fill="#FFF9E9"/>
<circle cx="76.2835" cy="61.8013" r="2.14286" stroke="#FFC247"/>
</svg>
