<svg width="20" height="21" viewBox="0 0 20 21" fill="none" xmlns="http://www.w3.org/2000/svg">
<g clip-path="url(#clip0_2791_21420)">
<path d="M18.3332 10.5804C18.3332 5.9779 14.6023 2.24707 9.99984 2.24707C5.39734 2.24707 1.6665 5.9779 1.6665 10.5804C1.6665 14.4887 4.35734 17.7679 7.9865 18.6687V13.1271H6.26817V10.5804H7.9865V9.4829C7.9865 6.64707 9.26984 5.33207 12.0548 5.33207C12.5832 5.33207 13.494 5.4354 13.8665 5.53874V7.84707C13.5463 7.82234 13.2251 7.81205 12.904 7.81624C11.5373 7.81624 11.009 8.33374 11.009 9.67957V10.5804H13.7315L13.264 13.1271H11.0082V18.8521C15.1357 18.3554 18.3332 14.8421 18.3332 10.5804Z" fill="#FFE7B0"/>
</g>
<defs>
<clipPath id="clip0_2791_21420">
<rect width="20" height="20" fill="white" transform="translate(0 0.580078)"/>
</clipPath>
</defs>
</svg>
