<svg width="20" height="21" viewBox="0 0 20 21" fill="none" xmlns="http://www.w3.org/2000/svg">
<path d="M18.3327 10.9204C18.3327 6.31787 14.6018 2.58704 9.99935 2.58704C5.39685 2.58704 1.66602 6.31787 1.66602 10.9204C1.66602 14.8287 4.35685 18.1079 7.98602 19.0087V13.467H6.26768V10.9204H7.98602V9.82287C7.98602 6.98704 9.26935 5.67204 12.0543 5.67204C12.5827 5.67204 13.4935 5.77537 13.866 5.8787V8.18704C13.5458 8.16231 13.2246 8.15202 12.9035 8.1562C11.5368 8.1562 11.0085 8.6737 11.0085 10.0195V10.9204H13.731L13.2635 13.467H11.0077V19.192C15.1352 18.6954 18.3327 15.182 18.3327 10.9204Z" fill="#FFF9E9"/>
</svg>
