<svg width="32" height="32" viewBox="0 0 32 32" fill="none" xmlns="http://www.w3.org/2000/svg">
<path d="M7.99205 20.608C2.97472 14.124 3.72538 7.94005 9.72538 6.42271C11.5587 5.95605 13.9094 6.48938 15.2094 7.65605L15.876 8.25605L16.8601 7.67338C22.5427 4.24005 29.5441 10.5734 26.5774 16.4574C23.8774 21.808 15.0934 27.5587 13.2921 25.1587C12.7587 24.4414 13.0254 24.3414 14.4427 24.692C15.7934 25.0254 22.0267 19.492 23.576 16.5747C25.4427 13.0734 25.0774 11.1747 22.0934 8.77471C20.8601 7.78938 18.9427 8.22405 17.4427 9.85738C16.26 11.124 15.0254 11.224 14.0094 9.62405C11.1254 5.12271 6.39205 8.69071 7.74272 14.34C8.30938 16.6734 8.92538 17.8414 11.2761 20.94C12.876 23.0414 12.9254 23.1414 12.392 23.4254C11.376 23.9747 9.79205 22.9587 7.99205 20.608Z" fill="#FCF3D9"/>
<path d="M20.3762 10.9733C19.5602 10.824 20.2428 9.90665 21.0095 10.1733C21.6442 10.4066 22.5268 10.7906 22.8762 11.7733C23.2602 12.8066 22.4935 13.8066 22.0602 13.6906C21.6762 13.5906 21.5602 13.1573 21.6095 12.2733C21.6602 11.3906 21.1935 11.124 20.3762 10.9733ZM22.2442 16.2573C21.1602 16.508 20.3428 15.6906 20.8268 15.14C21.1935 14.74 22.5775 14.7066 22.9775 15.1066C23.3108 15.4573 23.0935 16.0573 22.2442 16.2573Z" fill="#FCF3D9"/>
</svg>
