<svg width="20" height="21" viewBox="0 0 20 21" fill="none" xmlns="http://www.w3.org/2000/svg">
<path d="M9.99828 4.76166C12.0049 4.76166 12.2424 4.76999 13.0316 4.80583C13.7649 4.83833 14.1616 4.96083 14.4258 5.06416C14.7741 5.19916 15.0266 5.36333 15.2883 5.62416C15.5516 5.88832 15.7133 6.13749 15.8483 6.48666C15.9508 6.75082 16.0741 7.14999 16.1066 7.87999C16.1416 8.67166 16.1508 8.90999 16.1508 10.9133C16.1508 12.92 16.1416 13.1575 16.1066 13.9467C16.0741 14.68 15.9508 15.0767 15.8483 15.3408C15.7133 15.69 15.5483 15.9417 15.2883 16.2033C15.0241 16.4675 14.7741 16.6283 14.4258 16.7633C14.1616 16.8658 13.7624 16.9892 13.0316 17.0217C12.2399 17.0567 12.0024 17.0658 9.99828 17.0658C7.99161 17.0658 7.75411 17.0575 6.96495 17.0217C6.23161 16.9892 5.83578 16.8658 5.57161 16.7633C5.24589 16.6434 4.95118 16.4521 4.70911 16.2033C4.45973 15.9616 4.26804 15.6668 4.14828 15.3408C4.04578 15.0767 3.92328 14.6775 3.88995 13.9475C3.85495 13.155 3.84661 12.9175 3.84661 10.9142C3.84661 8.90666 3.85495 8.66916 3.89078 7.88082C3.92245 7.14749 4.04578 6.75082 4.14911 6.48666C4.28328 6.13749 4.44745 5.88499 4.70911 5.62416C4.95085 5.37501 5.24566 5.1836 5.57161 5.06416C5.83578 4.96083 6.23411 4.83833 6.96495 4.80583C7.75411 4.77083 7.99161 4.76166 9.99828 4.76166ZM9.99828 3.40916C7.95911 3.40916 7.70411 3.41749 6.90328 3.45333C6.10578 3.48833 5.55661 3.61749 5.08161 3.80249C4.57963 3.9908 4.12506 4.28692 3.74995 4.66999C3.3669 5.04431 3.07051 5.498 2.88161 5.99916C2.69661 6.47666 2.56745 7.02249 2.53161 7.82083C2.49661 8.62416 2.48828 8.87916 2.48828 10.9183C2.48828 12.9575 2.49661 13.2125 2.53245 14.0133C2.56745 14.8117 2.69661 15.36 2.88161 15.8358C3.07003 16.3382 3.36646 16.7931 3.74995 17.1683C4.16661 17.585 4.58578 17.8433 5.07828 18.0333C5.55661 18.2183 6.10245 18.3475 6.90078 18.3833C7.70078 18.4183 7.95661 18.4267 9.99578 18.4267C12.0341 18.4267 12.2899 18.4183 13.0908 18.3825C13.8883 18.3475 14.4374 18.2183 14.9124 18.0333C15.4132 17.8453 15.8669 17.5501 16.2416 17.1683C16.6583 16.7517 16.9166 16.3325 17.1066 15.8392C17.2916 15.3608 17.4208 14.815 17.4566 14.0175C17.4908 13.2167 17.4999 12.9617 17.4999 10.9225C17.4999 8.88333 17.4916 8.62832 17.4558 7.82749C17.4208 7.02916 17.2916 6.48083 17.1066 6.00583C16.9258 5.50088 16.6319 5.04396 16.2474 4.66999C15.8308 4.25333 15.4108 3.99499 14.9183 3.80416C14.4399 3.61999 13.8941 3.49083 13.0966 3.45499C12.2924 3.41749 12.0374 3.40916 9.99828 3.40916Z" fill="#FFF9E9"/>
<path d="M9.9989 7.06127C8.98553 7.07616 8.01872 7.48917 7.30737 8.21105C6.59602 8.93293 6.19727 9.90571 6.19727 10.9192C6.19727 11.9327 6.59602 12.9054 7.30737 13.6273C8.01872 14.3492 8.98553 14.7622 9.9989 14.7771C11.0123 14.7622 11.9791 14.3492 12.6904 13.6273C13.4018 12.9054 13.8005 11.9327 13.8005 10.9192C13.8005 9.90571 13.4018 8.93293 12.6904 8.21105C11.9791 7.48917 11.0123 7.07616 9.9989 7.06127ZM9.9989 13.4213C9.67026 13.4212 9.34487 13.3563 9.0413 13.2305C8.73772 13.1046 8.46191 12.9202 8.22961 12.6877C7.99731 12.4553 7.81306 12.1793 7.6874 11.8757C7.56174 11.572 7.49712 11.2466 7.49723 10.9179C7.49734 10.5893 7.56218 10.2639 7.68804 9.96033C7.8139 9.65676 7.99833 9.38095 8.23079 9.14864C8.46324 8.91634 8.73918 8.7321 9.04283 8.60644C9.34649 8.48078 9.67193 8.41616 10.0006 8.41627C10.6643 8.41627 11.3008 8.67992 11.7701 9.14923C12.2394 9.61854 12.5031 10.2551 12.5031 10.9188C12.5031 11.5825 12.2394 12.219 11.7701 12.6883C11.3008 13.1576 10.6643 13.4213 10.0006 13.4213H9.9989ZM14.9097 6.90877C14.9097 7.02707 14.8864 7.14421 14.8412 7.2535C14.7959 7.3628 14.7295 7.4621 14.6459 7.54575C14.5622 7.6294 14.4629 7.69576 14.3536 7.74103C14.2443 7.7863 14.1272 7.8096 14.0089 7.8096C13.8906 7.8096 13.7735 7.7863 13.6642 7.74103C13.5549 7.69576 13.4556 7.6294 13.3719 7.54575C13.2883 7.4621 13.2219 7.3628 13.1766 7.2535C13.1314 7.14421 13.1081 7.02707 13.1081 6.90877C13.1081 6.66985 13.203 6.44072 13.3719 6.27178C13.5409 6.10284 13.77 6.00793 14.0089 6.00793C14.2478 6.00793 14.4769 6.10284 14.6459 6.27178C14.8148 6.44072 14.9097 6.66985 14.9097 6.90877Z" fill="#FFF9E9"/>
</svg>
