<svg width="20" height="21" viewBox="0 0 20 21" fill="none" xmlns="http://www.w3.org/2000/svg">
<path d="M9.99828 4.42169C12.0049 4.42169 12.2424 4.43003 13.0316 4.46586C13.7649 4.49836 14.1616 4.62086 14.4258 4.72419C14.7741 4.85919 15.0266 5.02336 15.2883 5.28419C15.5516 5.54836 15.7133 5.79753 15.8483 6.14669C15.9508 6.41086 16.0741 6.81003 16.1066 7.54003C16.1416 8.33169 16.1508 8.57003 16.1508 10.5734C16.1508 12.58 16.1416 12.8175 16.1066 13.6067C16.0741 14.34 15.9508 14.7367 15.8483 15.0009C15.7133 15.35 15.5483 15.6017 15.2883 15.8634C15.0241 16.1275 14.7741 16.2884 14.4258 16.4234C14.1616 16.5259 13.7624 16.6492 13.0316 16.6817C12.2399 16.7167 12.0024 16.7259 9.99828 16.7259C7.99161 16.7259 7.75411 16.7175 6.96495 16.6817C6.23161 16.6492 5.83578 16.5259 5.57161 16.4234C5.24589 16.3035 4.95118 16.1121 4.70911 15.8634C4.45973 15.6217 4.26804 15.3268 4.14828 15.0009C4.04578 14.7367 3.92328 14.3375 3.88995 13.6075C3.85495 12.815 3.84661 12.5775 3.84661 10.5742C3.84661 8.56669 3.85495 8.32919 3.89078 7.54086C3.92245 6.80753 4.04578 6.41086 4.14911 6.14669C4.28328 5.79753 4.44745 5.54503 4.70911 5.28419C4.95085 5.03505 5.24566 4.84363 5.57161 4.72419C5.83578 4.62086 6.23411 4.49836 6.96495 4.46586C7.75411 4.43086 7.99161 4.42169 9.99828 4.42169ZM9.99828 3.06919C7.95911 3.06919 7.70411 3.07753 6.90328 3.11336C6.10578 3.14836 5.55661 3.27753 5.08161 3.46253C4.57963 3.65083 4.12506 3.94696 3.74995 4.33003C3.3669 4.70435 3.07051 5.15804 2.88161 5.65919C2.69661 6.13669 2.56745 6.68253 2.53161 7.48086C2.49661 8.28419 2.48828 8.53919 2.48828 10.5784C2.48828 12.6175 2.49661 12.8725 2.53245 13.6734C2.56745 14.4717 2.69661 15.02 2.88161 15.4959C3.07003 15.9982 3.36646 16.4531 3.74995 16.8284C4.16661 17.245 4.58578 17.5034 5.07828 17.6934C5.55661 17.8784 6.10245 18.0075 6.90078 18.0434C7.70078 18.0784 7.95661 18.0867 9.99578 18.0867C12.0341 18.0867 12.2899 18.0784 13.0908 18.0425C13.8883 18.0075 14.4374 17.8784 14.9124 17.6934C15.4132 17.5053 15.8669 17.2101 16.2416 16.8284C16.6583 16.4117 16.9166 15.9925 17.1066 15.4992C17.2916 15.0209 17.4208 14.475 17.4566 13.6775C17.4908 12.8767 17.4999 12.6217 17.4999 10.5825C17.4999 8.54336 17.4916 8.28836 17.4558 7.48753C17.4208 6.68919 17.2916 6.14086 17.1066 5.66586C16.9258 5.16092 16.6319 4.704 16.2474 4.33003C15.8308 3.91336 15.4108 3.65503 14.9183 3.46419C14.4399 3.28003 13.8941 3.15086 13.0966 3.11503C12.2924 3.07753 12.0374 3.06919 9.99828 3.06919Z" fill="#FFE7B0"/>
<path d="M9.99841 6.7213C8.98505 6.7362 8.01823 7.14921 7.30688 7.87109C6.59554 8.59297 6.19678 9.56575 6.19678 10.5792C6.19678 11.5927 6.59554 12.5655 7.30688 13.2874C8.01823 14.0092 8.98505 14.4222 9.99841 14.4371C11.0118 14.4222 11.9786 14.0092 12.6899 13.2874C13.4013 12.5655 13.8 11.5927 13.8 10.5792C13.8 9.56575 13.4013 8.59297 12.6899 7.87109C11.9786 7.14921 11.0118 6.7362 9.99841 6.7213ZM9.99841 13.0813C9.66978 13.0812 9.34438 13.0164 9.04081 12.8905C8.73723 12.7646 8.46142 12.5802 8.22912 12.3477C7.99682 12.1153 7.81258 11.8394 7.68691 11.5357C7.56125 11.232 7.49663 10.9066 7.49674 10.578C7.49685 10.2493 7.56169 9.92394 7.68755 9.62037C7.81342 9.31679 7.99784 9.04098 8.2303 8.80868C8.46275 8.57638 8.73869 8.39214 9.04235 8.26647C9.34601 8.14081 9.67144 8.07619 10.0001 8.0763C10.6638 8.0763 11.3003 8.33996 11.7696 8.80927C12.2389 9.27858 12.5026 9.9151 12.5026 10.5788C12.5026 11.2425 12.2389 11.879 11.7696 12.3483C11.3003 12.8176 10.6638 13.0813 10.0001 13.0813H9.99841ZM14.9092 6.5688C14.9092 6.6871 14.8859 6.80424 14.8407 6.91354C14.7954 7.02283 14.729 7.12214 14.6454 7.20579C14.5617 7.28944 14.4624 7.35579 14.3531 7.40106C14.2438 7.44633 14.1267 7.46964 14.0084 7.46964C13.8901 7.46964 13.773 7.44633 13.6637 7.40106C13.5544 7.35579 13.4551 7.28944 13.3714 7.20579C13.2878 7.12214 13.2214 7.02283 13.1761 6.91354C13.1309 6.80424 13.1076 6.6871 13.1076 6.5688C13.1076 6.32989 13.2025 6.10076 13.3714 5.93182C13.5404 5.76288 13.7695 5.66797 14.0084 5.66797C14.2473 5.66797 14.4765 5.76288 14.6454 5.93182C14.8143 6.10076 14.9092 6.32989 14.9092 6.5688Z" fill="#FFE7B0"/>
</svg>
