<svg width="20" height="18" viewBox="0 0 20 18" fill="none" xmlns="http://www.w3.org/2000/svg">
<path d="M9.91992 2.02856C10.0313 1.99365 10.1504 1.99049 10.2637 2.0188C10.3769 2.04711 10.4807 2.1055 10.5625 2.18872H10.5615C10.6556 2.26318 10.7937 2.39487 10.9102 2.51001L11.167 2.76587L11.1719 2.76978L13.2832 4.80591C13.6024 5.11373 14.0542 5.46052 14.543 5.83716C15.0283 6.21116 15.5478 6.61185 15.9883 7.01978H15.9873C16.3569 7.33488 16.6767 7.7035 16.9355 8.11353L17.043 8.29224L17.0508 8.30688L17.0557 8.32251C17.1443 8.61214 17.1776 8.91601 17.1553 9.21802C17.1553 9.96543 17.0638 11.1738 16.9824 12.3821C16.9006 13.5971 16.8299 14.8124 16.8701 15.592C16.8727 15.6423 16.8655 15.6931 16.8486 15.7405C16.8317 15.788 16.8053 15.832 16.7715 15.8694C16.7378 15.9067 16.6968 15.9367 16.6514 15.9583C16.6058 15.9798 16.5562 15.9929 16.5059 15.9954H16.5029C16.4043 15.9982 16.3084 15.9629 16.2344 15.8977C16.1604 15.8325 16.1141 15.7419 16.1045 15.6438L16.1035 15.6399C16.0562 14.9567 16.0813 13.9418 16.1221 12.8967C16.163 11.8472 16.2198 10.7653 16.2373 9.93286L16.2383 9.91919L16.2627 9.61548C16.2754 9.32168 16.2568 9.02722 16.209 8.73657C15.9787 8.36717 15.6883 8.03833 15.3486 7.76587L15.3438 7.76294C14.8997 7.37652 14.381 6.98716 13.8848 6.61938C13.3915 6.25381 12.9178 5.90677 12.5742 5.6106L12.5674 5.60474L10.4209 3.54028L10.4189 3.53833C10.3803 3.49966 10.2289 3.33918 10.0771 3.18677C10.0496 3.20889 10.023 3.23211 9.99707 3.2561L9.99414 3.25806C9.82498 3.40748 9.65919 3.58226 9.49512 3.75513C9.33403 3.92484 9.1719 4.09458 9.01953 4.22583L9.02051 4.22681C8.27401 4.89166 7.53341 5.55042 6.77539 6.22681C6.29228 6.67501 5.8102 7.12666 5.35254 7.59009C5.20511 7.74053 5.02004 7.90446 4.83301 8.07056C4.64386 8.23853 4.45081 8.41192 4.28027 8.58813L4.27637 8.59204C4.09313 8.76663 3.94445 8.97445 3.83887 9.20435C3.69597 10.2049 3.63341 11.2153 3.65137 12.2258L3.65234 12.2327L3.50195 12.2288L3.65137 12.2327C3.62161 13.2079 3.67043 14.1841 3.79492 15.1516C4.87217 14.9984 5.95783 14.9115 7.0459 14.8958H8.33887C8.65907 14.8987 8.98258 14.9102 9.30273 14.9211C9.62353 14.9321 9.94193 14.9426 10.2568 14.9426H10.2676C11.8477 15.0542 13.4327 15.0799 15.0156 15.0188C15.1143 15.0106 15.2132 15.0412 15.29 15.1038C15.3475 15.1506 15.3895 15.2129 15.4121 15.2825L15.4277 15.3547L15.4287 15.3557C15.4396 15.4544 15.4112 15.5542 15.3496 15.6321C15.2881 15.7099 15.198 15.7595 15.0996 15.7717C13.9446 15.922 12.781 15.9962 11.6162 15.9944L11.6172 15.9954C10.5833 16.007 9.48437 16.0011 8.40234 15.9602H8.39746C6.82126 15.8503 5.23989 15.8257 3.66113 15.8889C3.57763 15.8967 3.49406 15.8757 3.4248 15.8284C3.37863 15.7968 3.34139 15.7545 3.31445 15.7063C3.28381 15.6913 3.25479 15.673 3.22949 15.6497C3.18332 15.607 3.1492 15.5525 3.13086 15.4924L3.12793 15.4827L3.12598 15.4729C2.94705 14.4047 2.85645 13.3235 2.85547 12.2405H2.85645C2.80849 11.151 2.85308 10.0595 2.99121 8.97778L2.99316 8.96021L3 8.94458C3.10873 8.65422 3.27037 8.38619 3.47754 8.15552C3.83467 7.72232 4.35652 7.25342 4.7041 6.91724C5.2493 6.29104 5.85672 5.69456 6.45508 5.12524C7.05109 4.55818 7.69302 4.00543 8.30566 3.43286L8.30762 3.43091C8.44462 3.30786 8.59578 3.14624 8.76172 2.96997C8.92529 2.79622 9.10141 2.61018 9.28223 2.45044L9.42578 2.3313C9.57304 2.21745 9.73187 2.11919 9.89941 2.03735L9.90918 2.03247L9.91992 2.02856Z" fill="#310909" stroke="#310909" stroke-width="0.3"/>
<path d="M8.90332 10.1421C9.14716 10.1301 9.39155 10.1363 9.63477 10.1597C9.89511 10.1401 10.1562 10.134 10.417 10.144L10.6826 10.1597L10.6875 10.1606C10.8297 10.1764 10.9664 10.2242 11.0869 10.3013C11.2074 10.3784 11.3089 10.4825 11.3828 10.605L11.3867 10.6128L11.3906 10.6196C11.4669 10.7856 11.5233 10.9602 11.5576 11.1392L11.584 11.3198L11.585 11.3276L11.5977 11.7905C11.5977 11.9452 11.5937 12.0999 11.585 12.2544C11.6023 13.1539 11.5577 14.0535 11.4502 14.9468L11.4424 15.0063L11.3965 15.0454C11.3163 15.1116 11.2153 15.1479 11.1113 15.1479C11.0073 15.1479 10.9063 15.1116 10.8262 15.0454L10.8213 15.0415V15.0405C10.7731 14.997 10.7531 14.9357 10.7432 14.8989C10.7312 14.8546 10.7238 14.8035 10.7188 14.7515C10.7086 14.6466 10.7072 14.5189 10.7109 14.3931C10.7147 14.2666 10.7239 14.1379 10.7354 14.0288C10.7447 13.9399 10.7574 13.8557 10.7715 13.7964C10.772 13.277 10.8012 12.8337 10.7725 12.2593L10.7715 12.2563C10.7628 11.9875 10.7373 11.7196 10.6973 11.4536C10.669 11.3429 10.6342 11.2342 10.5938 11.1274C10.5065 11.1098 10.4182 11.0981 10.3291 11.0952C10.1967 11.0954 10.0773 11.1032 9.96289 11.1118C9.84928 11.1204 9.73598 11.1304 9.62695 11.1304H8.76465C8.76365 11.1386 8.76177 11.1474 8.76074 11.1567C8.75005 11.2535 8.73976 11.3937 8.72852 11.5649C8.70631 11.9032 8.68199 12.3662 8.65039 12.8228C8.61866 13.2813 8.57873 13.7463 8.52539 14.1021C8.49888 14.2788 8.46781 14.4354 8.43066 14.5522C8.41226 14.6101 8.38986 14.6669 8.36133 14.7124C8.33598 14.7528 8.28619 14.8156 8.20215 14.8315H8.20117C8.10418 14.8493 8.00407 14.8312 7.91992 14.7798C7.85678 14.7411 7.80584 14.6856 7.77246 14.6206L7.74316 14.5474C7.72838 14.4912 7.72344 14.3932 7.7207 14.2866C7.71776 14.1722 7.71735 14.0261 7.71973 13.8599C7.72449 13.5267 7.73833 13.1069 7.75586 12.6899C7.77338 12.2731 7.79509 11.8574 7.81445 11.5298C7.83265 11.2219 7.85054 10.981 7.8623 10.897H7.86133C7.87619 10.7287 7.94945 10.5707 8.06738 10.4497L8.07422 10.4419L8.1748 10.5542L8.0752 10.4419C8.23561 10.2997 8.43122 10.2026 8.6416 10.1616L8.65527 10.1597L8.90332 10.1421Z" fill="#310909" stroke="#310909" stroke-width="0.3"/>
</svg>
