<svg width="20" height="20" viewBox="0 0 20 20" fill="none" xmlns="http://www.w3.org/2000/svg">
<path fill-rule="evenodd" clip-rule="evenodd" d="M7.3066 4.38585C2.82327 4.58668 2.5166 4.93168 2.5166 9.60668C2.5266 13.6983 2.87077 15.115 3.8766 15.115C3.93493 15.115 4.31827 15.2308 4.72993 15.365C6.7891 16.0542 16.6766 15.3167 17.0883 14.4358C17.4141 13.7458 17.5866 8.11251 17.3374 6.54085C17.0791 4.95085 16.4374 4.45251 14.7408 4.49085C13.2849 4.52918 13.5049 5.14251 14.9808 5.14251C16.0824 5.14251 16.0924 5.17085 16.1116 9.67418C16.1308 13.985 16.1399 13.88 15.4783 14.0425C14.2716 14.34 7.3066 14.4067 4.31744 14.455C4.03994 13.9275 3.98243 14.1 3.70493 9.92335C3.4466 5.91835 3.45493 5.89918 6.26327 5.52585C8.2266 5.26751 8.58077 5.23835 10.7174 5.18085C12.7008 5.12251 13.0174 5.08501 13.0174 4.94085C13.0074 4.50085 10.3924 4.24168 7.3066 4.38585ZM14.8274 6.00501C14.5024 6.26335 13.7541 7.05835 11.3024 9.67418C10.4874 10.5458 10.5166 10.5458 9.68244 9.96168C8.40827 9.08002 7.30744 8.40918 6.44494 7.63335C5.21827 6.53168 4.4416 6.10001 4.1741 6.36835C4.01077 6.53168 5.39994 7.67168 7.2491 9.54001L8.0541 10.3542C8.02493 10.3825 6.37743 11.6567 5.63994 12.6542C5.1416 13.3242 5.66827 13.4483 6.1091 13.1325C6.5691 12.7875 7.33577 11.935 8.46577 10.7658L8.86827 10.9292C9.50993 11.1875 10.7458 11.015 11.1766 10.6125C11.4841 10.325 11.7616 10.2292 11.7616 10.4025C11.7616 10.5267 13.7641 12.5 14.4733 13.1133C14.8758 13.4583 16.0633 13.8417 15.0566 12.6725C14.3199 11.8292 12.8633 10.3642 12.3366 10C12.2116 9.91335 12.1258 9.82752 12.1449 9.80835C13.5341 8.90752 14.9708 7.38418 15.4699 6.50251C16.0916 5.43918 14.9899 5.88001 14.8274 6.00501Z" fill="#310909"/>
</svg>
