<svg width="20" height="21" viewBox="0 0 20 21" fill="none" xmlns="http://www.w3.org/2000/svg">
<path d="M6.25 9.25H6.25833M10 9.25H10.0083M13.75 9.25H13.7583M5.83333 15.5V17.4463C5.83333 17.8903 5.83333 18.1123 5.92436 18.2263C6.00352 18.3255 6.12356 18.3832 6.25045 18.3831C6.39636 18.3829 6.56973 18.2442 6.91646 17.9668L8.90434 16.3765C9.31043 16.0517 9.51347 15.8892 9.73957 15.7737C9.94017 15.6712 10.1537 15.5963 10.3743 15.551C10.6231 15.5 10.8831 15.5 11.4031 15.5H13.5C14.9001 15.5 15.6002 15.5 16.135 15.2275C16.6054 14.9878 16.9878 14.6054 17.2275 14.135C17.5 13.6002 17.5 12.9001 17.5 11.5V7C17.5 5.59987 17.5 4.8998 17.2275 4.36502C16.9878 3.89462 16.6054 3.51217 16.135 3.27248C15.6002 3 14.9001 3 13.5 3H6.5C5.09987 3 4.3998 3 3.86502 3.27248C3.39462 3.51217 3.01217 3.89462 2.77248 4.36502C2.5 4.8998 2.5 5.59987 2.5 7V12.1667C2.5 12.9416 2.5 13.3291 2.58519 13.647C2.81635 14.5098 3.49022 15.1836 4.35295 15.4148C4.67087 15.5 5.05836 15.5 5.83333 15.5ZM6.66667 9.25C6.66667 9.48012 6.48012 9.66667 6.25 9.66667C6.01988 9.66667 5.83333 9.48012 5.83333 9.25C5.83333 9.01988 6.01988 8.83333 6.25 8.83333C6.48012 8.83333 6.66667 9.01988 6.66667 9.25ZM10.4167 9.25C10.4167 9.48012 10.2301 9.66667 10 9.66667C9.76988 9.66667 9.58333 9.48012 9.58333 9.25C9.58333 9.01988 9.76988 8.83333 10 8.83333C10.2301 8.83333 10.4167 9.01988 10.4167 9.25ZM14.1667 9.25C14.1667 9.48012 13.9801 9.66667 13.75 9.66667C13.5199 9.66667 13.3333 9.48012 13.3333 9.25C13.3333 9.01988 13.5199 8.83333 13.75 8.83333C13.9801 8.83333 14.1667 9.01988 14.1667 9.25Z" stroke="#59201A" stroke-width="1.5" stroke-linecap="round" stroke-linejoin="round"/>
</svg>
