<svg width="48" height="48" viewBox="0 0 48 48" fill="none" xmlns="http://www.w3.org/2000/svg">
<g clip-path="url(#clip0_2791_21442)">
<path d="M29.12 7.9241C29.98 6.1741 28.86 4.9121 27.672 6.3041C26.796 7.3361 25.564 10.2761 25.778 10.8341C26.28 12.1101 27.658 10.9061 29.12 7.9241ZM20.56 11.4501C21.464 11.7381 21.78 11.2061 21.678 9.5721C21.464 6.3461 20.474 5.0121 18.782 5.6861C17.978 6.0021 19.556 11.1361 20.56 11.4501ZM11.512 12.2821C13.548 13.8021 14.968 14.4761 15.684 14.2181C16.574 13.9041 16.43 13.6021 14.81 12.3261C12.744 10.6761 11.612 10.1901 10.522 10.4761C9.74797 10.6761 9.99197 11.1361 11.512 12.2821ZM29.106 12.8281C28.618 13.3581 28.618 13.3721 28.99 13.6441C30.052 14.4201 31.184 13.8041 35.674 9.9741C36.878 8.9421 34.884 8.1241 33.478 9.0841C32.748 9.5861 29.678 12.2101 29.106 12.8281ZM46.17 38.6661C45.668 38.2501 45.338 37.4761 45.194 36.3721C45.094 35.6121 43.488 23.0521 42.756 19.7381C42.156 16.9861 40.462 15.6801 39.116 15.6101C38.268 15.5661 37.78 16.1261 37.436 15.9101C36.504 15.3221 36.246 15.0501 35.33 15.1361C34.898 15.1641 33.938 15.4221 33.61 15.7101C33.394 15.8821 33.12 15.8821 32.518 15.7241C29.564 14.9361 28.258 17.7441 29.594 22.0341C30.354 24.4861 31.444 23.4101 31.128 20.5281C30.712 16.7141 30.798 16.3121 31.988 16.7421C32.634 16.9721 32.662 17.0281 32.604 17.8181C32.518 18.9221 33.292 23.9681 33.58 24.1561C34.368 24.6721 34.97 23.7541 34.712 22.3921C34.01 18.5781 34.482 16.2121 35.888 16.5701C36.318 16.6841 36.634 17.0701 36.634 17.5161C36.706 21.8321 36.748 24.7161 38.068 24.7161C38.9 24.7161 38.9 24.7441 38.714 21.0001C38.514 17.0281 38.986 16.8141 39.688 17.0281C40.708 17.3441 40.808 19.7241 40.908 20.3681C40.908 20.3841 43.172 35.2681 43.172 35.2961C43.446 38.6801 45.552 41.6501 47.03 40.7021C47.33 40.5021 46.77 39.1681 46.17 38.6661ZM10.752 20.6001C10.752 18.2901 10.78 18.1041 11.24 17.5881C12.056 16.6281 12.314 17.5021 12.472 21.9181C12.588 25.1441 12.602 25.1881 13.29 25.3881C14.178 25.6601 14.264 25.2461 14.164 21.6021C14.064 18.3201 14.078 18.2041 14.508 17.7741C15.398 16.8701 15.584 17.2301 15.956 20.3421C16.172 22.2341 16.144 23.2961 15.842 24.9301C15.77 25.3461 15.842 25.4741 16.186 25.5741C17.118 25.8181 17.276 25.5041 17.548 22.7781C18.022 18.0621 17.376 16.6421 14.708 16.6121C13.92 16.5981 13.018 16.4981 12.702 16.3541C12.386 16.2261 11.67 16.1261 11.11 16.1401C10.4352 16.15 9.76047 16.1166 9.08997 16.0401C8.42997 15.9541 7.88397 16.0101 7.49597 16.1821C5.84797 16.9421 5.55997 17.8321 3.62597 28.2861C3.29597 30.0921 2.92197 32.3441 2.82197 33.2741C2.62197 35.0101 2.01797 37.0321 1.21597 38.6941C0.655969 39.8421 0.785969 40.2581 1.67597 40.2581C3.26597 40.2581 4.75597 37.6781 5.11597 34.2781C5.30197 32.4721 5.63197 31.7261 6.20597 27.5981C7.29597 19.6381 7.49597 18.7201 8.29997 17.7881C9.40397 16.5121 9.30397 16.9281 9.44597 24.3561C9.44597 24.6721 9.73397 24.9161 10.048 24.8861C10.622 24.8441 10.752 24.3121 10.752 20.6001ZM37.494 40.3721C36.59 38.7101 36.518 38.6521 34.914 38.4801C32.962 38.2661 31.458 37.5061 30.812 36.4161C29.392 33.9921 27.4 27.5541 27.628 26.1361C27.944 24.1401 28.604 24.2841 29.68 26.5501C30.526 28.3281 31.084 28.9581 33.078 30.4501C33.966 31.1101 34.512 31.6981 34.87 32.4001C35.314 33.2601 35.472 33.4041 35.99 33.4041C37.752 33.4041 35.644 29.5761 33.494 28.8881C32.574 28.6001 32.29 28.3561 32.29 27.8841C32.29 25.5181 28.834 22.9501 26.998 23.9541C25.42 24.8301 25.292 26.1481 26.382 30.1201C28.474 37.7341 29.65 39.2841 33.58 39.6281C35.114 39.7701 35.486 40.0281 36.26 41.4781C37.322 43.4701 38.54 42.1081 38.298 41.7921C38.21 41.6641 37.852 41.0321 37.494 40.3721Z" fill="#FCF3D9"/>
<path d="M18.4382 24.8857C17.3902 25.3737 16.2582 26.5777 15.7702 27.7257C15.4102 28.5717 15.3102 28.6577 14.5102 28.7857C12.7602 29.0597 11.2402 30.3657 11.0102 31.7557C10.8102 32.9877 12.0702 33.6197 12.5302 32.4997C13.1322 31.0517 14.3222 29.9337 15.6262 29.6037C16.4302 29.4037 18.0362 27.7977 19.3982 25.8757C20.2582 24.6557 20.8322 26.3057 20.2302 28.2277C18.3382 34.1637 15.8862 37.4337 13.0602 37.7477C11.8702 37.8917 11.6122 38.1357 10.5942 40.1577C9.92017 41.4777 9.90617 41.5477 10.2642 41.8077C11.1242 42.4377 11.9422 41.8357 12.5022 40.1717C12.8882 39.0257 12.9322 38.9677 13.8062 38.7517C17.1042 37.9057 18.7382 35.9557 21.1062 30.0917C22.9122 25.6177 21.7502 23.3517 18.4382 24.8857Z" fill="#FCF3D9"/>
</g>
<defs>
<clipPath id="clip0_2791_21442">
<rect width="48" height="48" fill="white"/>
</clipPath>
</defs>
</svg>
