<svg width="46" height="44" viewBox="0 0 46 44" fill="none" xmlns="http://www.w3.org/2000/svg">
<path d="M44 17.7503H42.1691C41.7293 12.9703 39.5197 8.52709 35.9734 5.29207C32.4271 2.05705 27.8001 0.263672 23 0.263672C18.1999 0.263672 13.5729 2.05705 10.0266 5.29207C6.48035 8.52709 4.27065 12.9703 3.83094 17.7503H2C1.53587 17.7503 1.09075 17.9347 0.762563 18.2628C0.434374 18.591 0.25 19.0362 0.25 19.5003C0.257689 23.662 1.40301 27.7425 3.56212 31.3004C5.72122 34.8583 8.81193 37.7582 12.5 39.6865V40.5003C12.5 41.4285 12.8687 42.3188 13.5251 42.9752C14.1815 43.6315 15.0717 44.0003 16 44.0003H30C30.9283 44.0003 31.8185 43.6315 32.4749 42.9752C33.1312 42.3188 33.5 41.4285 33.5 40.5003V39.6865C37.1881 37.7582 40.2788 34.8583 42.4379 31.3004C44.597 27.7425 45.7423 23.662 45.75 19.5003C45.75 19.0362 45.5656 18.591 45.2374 18.2628C44.9092 17.9347 44.4641 17.7503 44 17.7503ZM32.9487 7.3006C33.3498 7.62872 33.7341 7.97507 34.1016 8.33966C29.443 9.97843 25.5933 13.3464 23.35 17.7459H16.8969C17.9906 14.68 20.0043 12.0265 22.6628 10.1479C25.3212 8.26941 28.4948 7.25744 31.75 7.25028C32.1503 7.25028 32.5506 7.26997 32.9487 7.3006ZM27.4012 17.7503C29.5229 14.5672 32.7328 12.2673 36.4291 11.2818C37.6376 13.2476 38.3958 15.4567 38.6494 17.7503H27.4012ZM23 3.75028C24.4043 3.75155 25.8021 3.94062 27.1562 4.31247C23.8584 5.13054 20.8346 6.80346 18.3894 9.16264C15.9441 11.5218 14.164 14.4839 13.2284 17.7503H7.35063C7.78472 13.9022 9.61977 10.3484 12.5059 7.76641C15.3921 5.18444 19.1275 3.75489 23 3.75028Z" fill="#59201A"/>
</svg>
