<svg width="18" height="20" viewBox="0 0 18 20" fill="none" xmlns="http://www.w3.org/2000/svg">
<path d="M0.637322 1.43396L9.37732 10.005L0.702322 18.655C0.560396 18.4701 0.450224 18.263 0.376322 18.042C0.338101 17.7917 0.338101 17.5372 0.376322 17.287V2.56696C0.350322 2.17196 0.441322 1.77696 0.636322 1.43396M13.1423 6.26696L10.2893 9.09296L1.65332 0.599956C1.93332 0.502956 2.23332 0.475957 2.52632 0.521957C2.98632 0.647957 3.42532 0.841957 3.82832 1.09496L11.6443 5.41996C12.1523 5.69296 12.6473 5.97996 13.1423 6.26696ZM10.2903 10.93L13.1293 13.718L11.0713 14.864L4.79232 18.354C4.27232 18.641 3.75032 18.915 3.24232 19.228C3.02495 19.3633 2.78121 19.4507 2.52737 19.4843C2.27353 19.5179 2.01543 19.497 1.77032 19.423L10.2903 10.93ZM17.6503 10.005C17.6576 10.3546 17.5693 10.6997 17.3948 11.0028C17.2203 11.3059 16.9663 11.5556 16.6603 11.725L14.3143 13.027L11.2273 10.005L14.3273 6.93096C15.1223 7.37396 15.9043 7.81696 16.6853 8.23396C16.9968 8.40805 17.2526 8.66676 17.4232 8.98016C17.5938 9.29357 17.6732 9.64886 17.6503 10.005Z" fill="#FFF9E9"/>
</svg>
