<svg width="32" height="32" viewBox="0 0 32 32" fill="none" xmlns="http://www.w3.org/2000/svg">
<path d="M22.7629 7.33601C19.1576 5.50401 16.9256 7.09201 19.6016 7.72268C26.3842 9.32535 27.3136 17.696 20.8029 22.376C13.0762 27.9133 3.37358 20.4147 8.29624 12.716C10.3869 9.45335 12.7469 7.69335 15.1082 7.62268C17.1829 7.56535 16.5242 6.52001 14.4069 6.52001C9.18424 6.52001 3.56024 13.1733 4.60424 18.1253C5.44958 22.1747 8.76824 24.808 13.8482 25.4373C25.6829 26.9107 32.8082 12.4293 22.7629 7.33601Z" fill="#FCF3D9"/>
<path d="M14.0052 18.44C13.3758 17.4386 13.3185 17.396 12.6892 17.4386C11.0439 17.5666 12.1305 19.9133 14.2065 20.6866C15.9238 21.3306 18.5852 20.9866 19.4865 20.028C20.8465 18.5826 20.5159 16.2946 19.0865 17.2373C18.9998 17.2946 18.7999 17.6386 18.6425 17.9826C17.5825 20.3293 15.3078 20.5426 14.0052 18.44ZM20.2305 13.8613C19.7159 12.6306 18.9145 12.3293 18.3412 13.16C17.6545 14.176 18.0412 15.12 19.1425 15.12C20.2452 15.12 20.5879 14.7333 20.2305 13.8613ZM14.2932 14.0613C14.2932 13.06 13.6478 12.6013 12.7598 12.9733C11.9598 13.3026 11.5865 14.82 12.1598 15.3493C13.0612 16.1653 14.2932 15.4066 14.2932 14.0613Z" fill="#FCF3D9"/>
</svg>
