<svg width="26" height="26" viewBox="0 0 26 26" fill="none" xmlns="http://www.w3.org/2000/svg">
<path d="M25 1H16M25 1V10M25 1L14 12M9.53333 1C6.54667 1 5.05333 1 3.912 1.58133C2.90851 2.09265 2.09265 2.90851 1.58133 3.912C1 5.05333 1 6.54667 1 9.53333V16.4667C1 19.4533 1 20.9467 1.58133 22.088C2.09265 23.0915 2.90851 23.9073 3.912 24.4187C5.05333 25 6.54667 25 9.53333 25H16.4667C19.4533 25 20.9467 25 22.088 24.4187C23.0915 23.9073 23.9073 23.0915 24.4187 22.088C25 20.9467 25 19.4533 25 16.4667V15" stroke="#FFF9E9" stroke-width="2" stroke-linecap="round" stroke-linejoin="round"/>
</svg>
