<svg width="48" height="48" viewBox="0 0 48 48" fill="none" xmlns="http://www.w3.org/2000/svg">
<path fill-rule="evenodd" clip-rule="evenodd" d="M10.9489 25.6933C13.314 25.6933 15.5606 25.0641 17.4745 23.9375C19.3851 25.0641 21.635 25.6933 23.9969 25.6933C26.3653 25.6933 28.6086 25.0641 30.5258 23.9375C32.3618 25.0071 34.4328 25.6084 36.5561 25.6882C38.6794 25.7681 40.7897 25.3241 42.7008 24.3954V39.2716C42.7012 40.8307 42.1486 42.3394 41.1413 43.5294C40.134 44.7194 38.7374 45.5137 37.1997 45.7709V33.8824C37.1997 33.0088 36.8526 32.1709 36.2348 31.5531C35.6171 30.9354 34.7792 30.5883 33.9056 30.5883H30.6114C29.7378 30.5883 28.8999 30.9354 28.2821 31.5531C27.6644 32.1709 27.3173 33.0088 27.3173 33.8824V45.8599H11.891C10.1437 45.8599 8.46792 45.1657 7.23238 43.9302C5.99685 42.6947 5.30273 41.0189 5.30273 39.2716V24.3954C7.06141 25.2523 8.99254 25.6962 10.9489 25.6933ZM10.85 30.5883C10.4132 30.5883 9.99427 30.7619 9.68538 31.0707C9.3765 31.3796 9.20297 31.7986 9.20297 32.2354V37.1766C9.20297 37.6134 9.3765 38.0323 9.68538 38.3412C9.99427 38.6501 10.4132 38.8236 10.85 38.8236H20.7324C21.1692 38.8236 21.5881 38.6501 21.897 38.3412C22.2059 38.0323 22.3794 37.6134 22.3794 37.1766V32.2354C22.3794 31.7986 22.2059 31.3796 21.897 31.0707C21.5881 30.7619 21.1692 30.5883 20.7324 30.5883H10.85Z" fill="#59201A"/>
<path d="M10.9488 21.5758C13.6171 21.5758 15.9888 20.4163 17.4745 18.621C18.9634 20.4163 21.3286 21.5758 23.9968 21.5758C26.6651 21.5758 29.0368 20.4163 30.5258 18.621C32.0114 20.4163 34.3799 21.5758 37.0481 21.5758C41.5545 21.5758 45.2044 18.2652 45.2044 14.1838C45.2044 12.2107 43.5738 6.07371 37.0481 3.70854C26.9253 2.29206 21.21 2.27889 10.9488 3.70854C4.42649 6.07371 2.7959 12.2107 2.7959 14.1838C2.7959 18.2685 6.44578 21.5758 10.9488 21.5758Z" fill="#59201A"/>
</svg>
