<svg width="151" height="152" viewBox="0 0 151 152" fill="none" xmlns="http://www.w3.org/2000/svg">
<g opacity="0.4" filter="url(#filter0_f_2265_15030)">
<path d="M66.0063 104.869C67.0988 104.725 68.2024 105.021 69.0727 105.691L73.0835 108.769C74.4093 109.788 76.2536 109.788 77.5757 108.769L81.7383 105.573C82.5161 104.977 83.4975 104.714 84.4678 104.843L89.6747 105.528C91.3301 105.747 92.9263 104.825 93.567 103.28L95.5705 98.436C95.9446 97.5286 96.663 96.8101 97.5704 96.436L102.414 94.4324C103.959 93.7954 104.881 92.1954 104.662 90.5399L104.003 85.5215C103.859 84.4289 104.155 83.3253 104.825 82.4549L107.903 78.4439C108.921 77.118 108.921 75.2736 107.903 73.9515L104.707 69.7886C104.111 69.0109 103.848 68.0294 103.977 67.0591L104.662 61.8518C104.881 60.1963 103.959 58.6 102.414 57.9593L97.5704 55.9557C96.663 55.5816 95.9446 54.8631 95.5705 53.9557L93.567 49.1114C92.93 47.567 91.3301 46.6448 89.6747 46.8633L84.4678 47.5485C83.4975 47.6818 82.5161 47.4189 81.7421 46.8263L77.5794 43.6301C76.2536 42.6116 74.4093 42.6116 73.0872 43.6301L68.9246 46.8263C68.1469 47.4189 67.1655 47.6818 66.1952 47.5559L60.9882 46.8707C59.3328 46.6522 57.7367 47.5744 57.096 49.1188L55.0961 53.9631C54.7184 54.8668 53.9999 55.5853 53.0963 55.9631L48.2523 57.963C46.7079 58.6037 45.7858 60.2 46.0043 61.8555L46.6894 67.0628C46.8153 68.0331 46.5524 69.0146 45.9599 69.7886L42.7638 73.9515C41.7454 75.2773 41.7454 77.1217 42.7638 78.4439L45.9599 82.6068C46.5561 83.3845 46.819 84.366 46.6894 85.3363L46.0043 90.5436C45.7858 92.1991 46.7079 93.7953 48.2523 94.4361L53.0963 96.4397C54.0036 96.8138 54.7221 97.5323 55.0961 98.4397L57.0997 103.284C57.7367 104.828 59.3365 105.751 60.9919 105.532L66.0063 104.869Z" fill="#17B26A"/>
<path d="M66.0063 104.869C67.0988 104.725 68.2024 105.021 69.0727 105.691L73.0835 108.769C74.4093 109.788 76.2536 109.788 77.5757 108.769L81.7383 105.573C82.5161 104.977 83.4975 104.714 84.4678 104.843L89.6747 105.528C91.3301 105.747 92.9263 104.825 93.567 103.28L95.5705 98.436C95.9446 97.5286 96.663 96.8101 97.5704 96.436L102.414 94.4324C103.959 93.7954 104.881 92.1954 104.662 90.5399L104.003 85.5215C103.859 84.4289 104.155 83.3253 104.825 82.4549L107.903 78.4439C108.921 77.118 108.921 75.2736 107.903 73.9515L104.707 69.7886C104.111 69.0109 103.848 68.0294 103.977 67.0591L104.662 61.8518C104.881 60.1963 103.959 58.6 102.414 57.9593L97.5704 55.9557C96.663 55.5816 95.9446 54.8631 95.5705 53.9557L93.567 49.1114C92.93 47.567 91.3301 46.6448 89.6747 46.8633L84.4678 47.5485C83.4975 47.6818 82.5161 47.4189 81.7421 46.8263L77.5794 43.6301C76.2536 42.6116 74.4093 42.6116 73.0872 43.6301L68.9246 46.8263C68.1469 47.4189 67.1655 47.6818 66.1952 47.5559L60.9882 46.8707C59.3328 46.6522 57.7367 47.5744 57.096 49.1188L55.0961 53.9631C54.7184 54.8668 53.9999 55.5853 53.0963 55.9631L48.2523 57.963C46.7079 58.6037 45.7858 60.2 46.0043 61.8555L46.6894 67.0628C46.8153 68.0331 46.5524 69.0146 45.9599 69.7886L42.7638 73.9515C41.7454 75.2773 41.7454 77.1217 42.7638 78.4439L45.9599 82.6068C46.5561 83.3845 46.819 84.366 46.6894 85.3363L46.0043 90.5436C45.7858 92.1991 46.7079 93.7953 48.2523 94.4361L53.0963 96.4397C54.0036 96.8138 54.7221 97.5323 55.0961 98.4397L57.0997 103.284C57.7367 104.828 59.3365 105.751 60.9919 105.532L66.0063 104.869Z" stroke="#079455" stroke-width="4" stroke-linecap="round" stroke-linejoin="round"/>
</g>
<path d="M66.1733 93.6689C67.2658 93.5245 68.3694 93.8208 69.2397 94.4911L73.2505 97.5688C74.5763 98.5873 76.4206 98.5873 77.7427 97.5688L81.9053 94.3726C82.6831 93.7763 83.6645 93.5134 84.6347 93.643L89.8417 94.3282C91.4971 94.5467 93.0933 93.6245 93.734 92.0801L95.7375 87.2358C96.1116 86.3284 96.83 85.6099 97.7374 85.2358L102.581 83.2322C104.126 82.5952 105.048 80.9952 104.829 79.3397L104.17 74.3213C104.026 73.2288 104.322 72.1251 104.992 71.2547L108.07 67.2437C109.088 65.9178 109.088 64.0734 108.07 62.7513L104.874 58.5884C104.278 57.8107 104.015 56.8292 104.144 55.8589L104.829 50.6516C105.048 48.9961 104.126 47.3998 102.581 46.7591L97.7374 44.7555C96.83 44.3814 96.1116 43.6629 95.7375 42.7555L93.734 37.9112C93.097 36.3668 91.4971 35.4446 89.8417 35.6631L84.6347 36.3483C83.6645 36.4816 82.6831 36.2187 81.909 35.6261L77.7464 32.4299C76.4206 31.4114 74.5763 31.4114 73.2542 32.4299L69.0916 35.6261C68.3139 36.2187 67.3325 36.4816 66.3622 36.3557L61.1552 35.6705C59.4998 35.452 57.9036 36.3742 57.263 37.9186L55.2631 42.7629C54.8854 43.6666 54.1669 44.3851 53.2633 44.7629L48.4192 46.7628C46.8749 47.4035 45.9528 48.9998 46.1713 50.6553L46.8564 55.8626C46.9823 56.8329 46.7194 57.8144 46.1268 58.5884L42.9308 62.7513C41.9124 64.0771 41.9124 65.9215 42.9308 67.2437L46.1268 71.4066C46.7231 72.1843 46.986 73.1658 46.8564 74.1361L46.1713 79.3434C45.9528 80.9989 46.8749 82.5952 48.4192 83.2359L53.2633 85.2395C54.1706 85.6136 54.8891 86.3321 55.2631 87.2395L57.2667 92.0838C57.9036 93.6282 59.5035 94.5504 61.1589 94.3319L66.1733 93.6689Z" fill="#17B26A" stroke="#079455" stroke-width="4" stroke-linecap="round" stroke-linejoin="round"/>
<path d="M65.5 64.9993L72.1667 71.666L87.1667 56.666" stroke="white" stroke-width="4" stroke-linecap="round" stroke-linejoin="round"/>
<defs>
<filter id="filter0_f_2265_15030" x="0" y="0.866211" width="150.667" height="150.667" filterUnits="userSpaceOnUse" color-interpolation-filters="sRGB">
<feFlood flood-opacity="0" result="BackgroundImageFix"/>
<feBlend mode="normal" in="SourceGraphic" in2="BackgroundImageFix" result="shape"/>
<feGaussianBlur stdDeviation="20" result="effect1_foregroundBlur_2265_15030"/>
</filter>
</defs>
</svg>
