<svg width="32" height="32" viewBox="0 0 32 32" fill="none" xmlns="http://www.w3.org/2000/svg">
<g clip-path="url(#clip0_4726_6242)">
<path d="M22.3828 9.58984L22.3965 9.5918L22.4092 9.5957C22.6204 9.66633 22.8115 9.78776 22.9648 9.94922C23.1181 10.1106 23.2293 10.3071 23.2891 10.5215C23.3889 10.8793 23.4963 11.2508 23.6279 11.6211L23.6309 11.6279C23.6961 11.8495 23.7765 12.0665 23.873 12.2764C23.8962 12.3189 23.9117 12.365 23.918 12.4131C23.9248 12.4656 23.9214 12.5193 23.9072 12.5703C23.893 12.6214 23.8681 12.6695 23.835 12.7109C23.8033 12.7505 23.7639 12.7828 23.7197 12.8076C23.6749 12.8349 23.6252 12.8536 23.5732 12.8613C23.5213 12.8691 23.4679 12.8665 23.417 12.8535C23.3661 12.8404 23.3182 12.8169 23.2764 12.7852C23.2345 12.7533 23.1991 12.7135 23.1729 12.668V12.667C23.0205 12.4429 22.8835 12.2088 22.7637 11.9658L22.4951 11.457C22.4099 11.2865 22.3261 11.1071 22.2334 10.8965C22.2135 10.8513 22.1978 10.8079 22.1836 10.7705C22.1281 10.8434 22.0502 10.9475 21.9404 11.082L21.9414 11.083L21.4414 11.7334L21.4375 11.7383C21.3057 11.8948 21.174 12.0593 21.0508 12.2236C20.9287 12.3864 20.814 12.5583 20.6982 12.7402L20.6973 12.7393C20.6469 12.8234 20.5665 12.8849 20.4717 12.9102C20.375 12.9359 20.2721 12.9222 20.1855 12.8721C20.099 12.8219 20.0355 12.7393 20.0098 12.6426C19.9842 12.546 19.9977 12.4429 20.0479 12.3564L20.6533 11.1797L20.6572 11.1729L21.0742 10.4639L21.0771 10.458L21.082 10.4521L21.4238 9.99316L21.4248 9.99219C21.536 9.84817 21.6828 9.73453 21.8506 9.66406C21.9765 9.61118 22.1113 9.5835 22.2471 9.58203L22.3828 9.58984Z" fill="#FCF3D9" stroke="#FCF3D9" stroke-width="0.272727"/>
<path d="M23.5825 18.9468C23.6294 18.9511 23.6744 18.9654 23.7163 18.9868L23.7173 18.9858L23.7183 18.9878H23.7212L23.7202 18.9888C23.7625 19.0099 23.8005 19.0381 23.8315 19.0737C23.8634 19.1104 23.8878 19.1535 23.9028 19.1997C23.9178 19.2459 23.9237 19.2949 23.9194 19.3433C23.9151 19.3914 23.9012 19.4383 23.8784 19.481L23.2886 20.7017L23.2837 20.7114L22.8667 21.4194L22.8628 21.4272L22.8569 21.4341L22.5073 21.8843L22.5063 21.8833C22.3958 22.0277 22.2506 22.1415 22.0835 22.2134C21.916 22.2854 21.7325 22.3138 21.5513 22.2944L21.5356 22.2925L21.52 22.2866C21.3056 22.209 21.1134 22.0797 20.9604 21.9106C20.8075 21.7416 20.6979 21.5379 20.6421 21.3169V21.3159C20.5329 20.9541 20.435 20.5896 20.3042 20.23L20.3022 20.2251V20.2241C20.2289 19.9936 20.1373 19.7689 20.0278 19.5532L20.0288 19.5522C20.0045 19.5086 19.9874 19.4612 19.981 19.4116C19.9741 19.3591 19.9775 19.3054 19.9917 19.2544C20.006 19.2034 20.0309 19.1561 20.064 19.1147C20.0954 19.0753 20.1344 19.0429 20.1782 19.0181L20.1812 19.0161C20.1824 19.0154 20.1838 19.0139 20.1851 19.0132V19.0142C20.2284 18.9888 20.276 18.9708 20.3257 18.9634C20.3777 18.9556 20.431 18.9591 20.4819 18.9722C20.5328 18.9852 20.5807 19.0078 20.6226 19.0396C20.6618 19.0694 20.6946 19.1069 20.7202 19.1489C20.8735 19.3772 21.0129 19.6152 21.1362 19.8608C21.3299 20.2229 21.4649 20.5092 21.6567 20.9263C21.6788 20.9743 21.6958 21.0209 21.7114 21.0601C21.7675 20.9877 21.8483 20.8831 21.9614 20.7466L21.9634 20.7437L22.4966 20.1353C22.6322 19.9742 22.76 19.8311 22.8804 19.6626C23.0021 19.4922 23.1146 19.3226 23.2192 19.146C23.2415 19.1025 23.2728 19.0643 23.3101 19.0327C23.3473 19.0012 23.3905 18.9772 23.437 18.9624C23.4837 18.9477 23.5338 18.9424 23.5825 18.9468Z" fill="#FCF3D9" stroke="#FCF3D9" stroke-width="0.272727"/>
<path d="M21.0273 24.7749C21.0275 24.8246 21.0178 24.8738 20.998 24.9194C20.9783 24.9651 20.9495 25.0066 20.9131 25.0405C20.8766 25.0745 20.8331 25.1002 20.7861 25.1167C20.7419 25.1322 20.6952 25.1376 20.6484 25.1353V25.1362C19.4894 25.1279 18.3315 25.1678 17.1709 25.2095C16.0114 25.2511 14.8487 25.2934 13.6836 25.2935L13.6846 25.2944C12.6916 25.3028 11.6789 25.295 10.6738 25.228V25.2271C9.87069 25.2241 9.0682 25.169 8.27246 25.0601V25.0591C7.66338 24.98 7.0859 24.7419 6.59961 24.3667L6.58789 24.3569L6.57812 24.3452C6.07078 23.7272 5.81494 22.9402 5.86328 22.1421C5.88066 20.5798 5.99238 19.0201 6.19727 17.4712C6.22538 16.7766 6.14305 15.6531 6.10742 14.3813C6.07204 13.1182 6.08356 11.7218 6.30566 10.5171C6.40247 9.37409 6.94277 8.31435 7.81055 7.56396L7.81934 7.55615L7.8291 7.55029C8.34524 7.23507 8.91659 7.0225 9.51172 6.92432L9.76855 6.88916C10.6852 6.7761 11.6078 6.71189 12.5312 6.69678H14.3418V6.69775C15.5034 6.76881 16.6658 6.91458 17.8193 7.03076C18.9745 7.1471 20.1259 7.23399 21.2812 7.18896C22.0406 7.08907 22.8071 7.05602 23.5723 7.08936H23.5781C23.8946 7.11764 24.2026 7.21042 24.4814 7.36279C24.6905 7.47701 24.88 7.62292 25.0439 7.79443L25.1992 7.9751L25.2002 7.97607C25.7945 8.7572 26.1222 9.7085 26.1357 10.6899V10.6958C26.0961 12.0237 25.9471 13.346 25.6924 14.6499C25.6089 15.3014 25.5273 15.9437 25.5273 16.5835V16.5903C25.4899 17.3593 25.471 18.1285 25.4502 18.8999C25.4294 19.6706 25.4063 20.4432 25.3604 21.2163V21.2231C25.3323 21.4797 25.3377 21.7946 25.3408 22.1382C25.3439 22.4746 25.3438 22.835 25.3018 23.1685L25.3027 23.1694C25.2771 23.4849 25.1965 23.7935 25.0654 24.0815L25.0615 24.0913L25.0557 24.0991C24.8712 24.3835 24.5979 24.5995 24.2783 24.7124C23.7106 24.9133 23.1189 25.0376 22.5186 25.0845L22.5176 25.0854C22.5151 25.0856 22.5122 25.0862 22.5098 25.0864L22.5088 25.0854C22.4605 25.0912 22.4115 25.0886 22.3643 25.0767C22.3138 25.0638 22.2663 25.0414 22.2246 25.0103C22.1828 24.9791 22.1478 24.9398 22.1211 24.895C22.0944 24.8502 22.0768 24.8002 22.0693 24.7485C22.0619 24.697 22.0644 24.6447 22.0771 24.5942C22.0899 24.5438 22.1125 24.4963 22.1436 24.4546C22.1748 24.4128 22.2139 24.3768 22.2588 24.3501C22.3036 24.3234 22.3536 24.3058 22.4053 24.2983L22.4102 24.2974C22.8731 24.2474 23.3316 24.1603 23.7803 24.0356L23.7861 24.0337C24.0031 23.9838 24.1949 23.8601 24.332 23.6851C24.4568 23.4098 24.522 23.1114 24.5215 22.8091V21.1333C24.5712 20.3669 24.5798 19.5994 24.584 18.8286C24.5881 18.0591 24.5886 17.2852 24.6221 16.5112C24.6471 15.844 24.6803 15.1732 24.7559 14.5015L24.7568 14.4927C24.984 13.2421 25.1067 11.9745 25.1221 10.7036L25.1035 10.4165C25.0352 9.75288 24.7846 9.11915 24.377 8.58643C24.1508 8.33222 23.836 8.17412 23.4971 8.14502C22.7799 8.1298 22.0624 8.17382 21.3525 8.27686L21.3428 8.27783H19.5361C18.3649 8.23182 17.1957 8.10236 16.0381 7.99854C14.878 7.8945 13.7249 7.81592 12.5723 7.86963H12.5684C11.6873 7.88564 10.8075 7.94675 9.93262 8.05225H9.92969C9.42024 8.1018 8.92608 8.25528 8.47852 8.50342C7.85801 9.07379 7.47912 9.86057 7.41895 10.7017V10.7085L7.41699 10.7153C7.21113 11.8681 7.18818 13.222 7.20898 14.4653C7.22964 15.6998 7.29434 16.8387 7.26074 17.5317L7.25977 17.5454C7.03397 19.0609 6.90097 20.5889 6.86133 22.1206L6.86035 22.1323C6.79845 22.6675 6.93734 23.2062 7.24902 23.645C7.59393 23.9068 7.9991 24.0775 8.42773 24.1401L9 24.2144C9.57405 24.2803 10.1508 24.3213 10.7285 24.3384L10.7402 24.3394L11.1084 24.3774C11.9667 24.4549 12.8211 24.4556 13.6826 24.4556H13.6836C15.9948 24.4638 18.3382 24.3475 20.6611 24.4058H20.6631C20.7587 24.4091 20.8493 24.4485 20.917 24.5161C20.9848 24.5839 21.0241 24.6752 21.0273 24.771V24.7749Z" fill="#FCF3D9" stroke="#FCF3D9" stroke-width="0.272727"/>
<path d="M19.2759 8.22388C19.3718 8.23704 19.4588 8.287 19.5181 8.36353C19.5773 8.44006 19.6045 8.53693 19.5933 8.63306C19.5017 9.56518 19.4194 10.5 19.4194 11.4417V11.4495C19.3529 12.5718 19.3782 13.644 19.353 14.7776C19.3277 15.9185 19.2358 17.0057 19.2358 18.1086V18.1155C19.161 19.4711 18.9517 20.8987 18.8276 22.2415V24.0002H18.8267C18.8308 24.0481 18.8276 24.0966 18.814 24.1428C18.7986 24.1948 18.7729 24.2432 18.7378 24.2844C18.7026 24.3257 18.6588 24.3587 18.6099 24.3821C18.5608 24.4054 18.5069 24.4188 18.4526 24.4202L18.4517 24.4182C18.401 24.4206 18.3502 24.4145 18.3022 24.3977C18.2524 24.3802 18.2066 24.3531 18.1675 24.3176C18.1283 24.282 18.0969 24.2387 18.0747 24.1907C18.054 24.1458 18.0434 24.0974 18.0405 24.0481L18.0396 24.0491C17.9719 23.4486 17.9712 22.8322 17.9712 22.217V22.2151C17.9796 21.5205 18.015 20.8156 18.0483 20.1174C18.0817 19.4183 18.1128 18.7255 18.1128 18.05V18.0461C18.1379 17.0997 18.188 16.1564 18.188 15.2004V15.1946C18.2131 14.5589 18.2551 13.9237 18.3052 13.2893C18.4166 11.6854 18.603 10.1005 18.8647 8.5354C18.8705 8.48987 18.8855 8.44572 18.9077 8.40552C18.9315 8.36267 18.9637 8.32517 19.0024 8.29517C19.0413 8.26512 19.0858 8.24298 19.1333 8.23071C19.1799 8.21871 19.2283 8.21689 19.2759 8.22388Z" fill="#FCF3D9" stroke="#FCF3D9" stroke-width="0.272727"/>
<path d="M15.6768 9.61401C15.9786 9.59981 16.2774 9.68113 16.5303 9.84644C16.7516 9.99115 16.9279 10.1939 17.041 10.4314L17.0859 10.5349L17.0898 10.5457H17.0889C17.3025 11.2939 17.3945 12.072 17.3613 12.8494L17.3789 13.2224C17.3911 13.5957 17.3856 13.9696 17.3613 14.3425C17.3535 14.6981 17.2327 15.0423 17.0166 15.325L17.0098 15.3337L17.002 15.3416C16.7978 15.5341 16.5411 15.662 16.2646 15.7097L16.2549 15.7117V15.7107C15.8499 15.7507 15.4421 15.7501 15.0371 15.7107V15.7117C14.5457 15.6953 14.0546 15.7297 13.5576 15.7693C13.063 15.8087 12.561 15.8523 12.0586 15.8523C11.6077 15.856 11.1572 15.8231 10.7119 15.7517V15.7507C10.2637 15.7063 9.82194 15.6105 9.39648 15.4626L9.39062 15.4597C9.12212 15.3515 8.89142 15.1658 8.72852 14.9265L8.72363 14.9187L8.71875 14.9099C8.48836 14.4388 8.39234 13.9136 8.43945 13.3914H8.43848C8.50559 12.4044 8.63141 11.4219 8.81543 10.45H8.81641C8.85301 10.2208 9.02458 10.0886 9.2168 10.0886H9.2373L9.25684 10.0955C9.35758 10.127 9.44347 10.1954 9.49609 10.2869C9.54537 10.3728 9.56056 10.473 9.54297 10.5701L9.54395 10.571C9.52278 10.8037 9.45663 11.1921 9.39844 11.6208C9.33932 12.0565 9.28613 12.5471 9.28613 13.0085V13.0173L9.28516 13.0271C9.22968 13.4412 9.28512 13.8623 9.44531 14.2478C9.55153 14.3377 9.68549 14.3885 9.8252 14.3884H9.83789L9.85156 14.3914C10.1792 14.457 10.5117 14.4953 10.8457 14.5056H10.8535C11.2555 14.5424 11.6605 14.5424 12.0625 14.5056H12.0664C12.5577 14.4767 13.0509 14.4147 13.5537 14.3591C14.0543 14.3039 14.5631 14.2556 15.0752 14.2556H15.0859L15.3135 14.2693C15.5414 14.2783 15.7696 14.2737 15.9971 14.2556H16.0117C16.0782 14.2574 16.1435 14.2455 16.2061 14.2244C16.2068 14.2214 16.2074 14.2188 16.208 14.2166C16.2123 14.2008 16.2211 14.1754 16.2217 14.1736V14.1746C16.2301 14.0532 16.2301 13.9307 16.2217 13.8093V12.8376H16.2227C16.2782 12.2467 16.2461 11.6507 16.1279 11.0691C16.0925 10.9934 16.0433 10.9373 15.9766 10.8982C15.905 10.8564 15.8036 10.8279 15.6582 10.8279H13.873L13.2158 10.8748C12.9966 10.8945 12.7765 10.9178 12.5547 10.9392C12.1127 10.9819 11.6654 11.0202 11.2168 11.0203H10.0439L10.0303 11.0173C9.91868 10.9942 9.82016 10.9294 9.75391 10.8367C9.6933 10.7518 9.66549 10.6491 9.67188 10.5457C9.66172 10.4318 9.6971 10.3186 9.76953 10.2302C9.84207 10.1418 9.94684 10.0853 10.0605 10.073L10.0693 10.072H10.0781C10.442 10.0804 10.8063 10.0643 11.168 10.0232L11.1719 10.0222C11.6094 9.98506 12.0581 9.92546 12.5039 9.86401C12.9486 9.80271 13.3917 9.73998 13.8115 9.698H13.8145L14.8809 9.61401L14.8916 9.61304V9.61401H15.6768Z" fill="#FCF3D9" stroke="#FCF3D9" stroke-width="0.272727"/>
<path d="M11.8833 17.4143C12.3298 17.389 12.7777 17.389 13.2241 17.4143L13.2231 17.4153C13.6703 17.424 14.2062 17.4731 14.5571 17.5149C14.7269 17.5351 14.918 17.5453 15.1216 17.5569C15.3211 17.5682 15.5317 17.5806 15.7349 17.6057H15.7358C15.9242 17.6218 16.1106 17.6567 16.2925 17.7083H16.2935C16.295 17.7086 16.2968 17.7089 16.2983 17.7092C16.3002 17.7098 16.3024 17.7107 16.3042 17.7112H16.3032C16.3508 17.7223 16.3966 17.7412 16.437 17.7688C16.4801 17.7983 16.517 17.8364 16.5454 17.8801C16.5738 17.9239 16.5927 17.9734 16.6021 18.0247C16.6103 18.07 16.6089 18.1161 16.6011 18.1614C16.604 18.2155 16.5986 18.2696 16.5796 18.3206C16.5572 18.3803 16.5207 18.4342 16.4731 18.4768C16.4256 18.5193 16.368 18.5491 16.3062 18.5647C16.251 18.5786 16.194 18.579 16.1382 18.5686C15.9904 18.5565 15.8417 18.5575 15.6938 18.5696L15.6831 18.5706V18.5696C15.4896 18.5696 15.2863 18.5861 15.0835 18.6028C14.8833 18.6193 14.6813 18.637 14.4995 18.637H9.33252V18.636C9.28525 18.6394 9.23749 18.6355 9.19189 18.6223C9.1415 18.6077 9.09421 18.5828 9.05322 18.55C9.01232 18.5172 8.97793 18.4768 8.95264 18.4309C8.9273 18.3849 8.91157 18.3337 8.90576 18.2815C8.90003 18.2294 8.90484 18.1766 8.91943 18.1262C8.93406 18.0758 8.95795 18.0285 8.99072 17.9875C9.02358 17.9465 9.06477 17.9123 9.11084 17.887C9.15213 17.8643 9.19715 17.8501 9.24365 17.843V17.842C10.1107 17.6376 10.9912 17.4948 11.8784 17.4143H11.8833Z" fill="#FCF3D9" stroke="#FCF3D9" stroke-width="0.272727"/>
<path d="M13.0288 20.5222C13.4755 20.5367 13.9214 20.5768 14.3638 20.6404L14.3647 20.6394C14.5116 20.6557 14.6704 20.6658 14.8384 20.6785C15.0043 20.691 15.1773 20.7064 15.3452 20.7322H15.3442C15.425 20.7439 15.5052 20.759 15.5845 20.7781L15.8188 20.8464L15.8276 20.8494C15.919 20.8878 15.9932 20.959 16.0356 21.0486C16.0779 21.1379 16.086 21.2399 16.0581 21.3347C16.0301 21.4298 15.9676 21.512 15.8833 21.5642C15.7991 21.6163 15.6985 21.6351 15.6011 21.6179L15.5903 21.616C15.4859 21.5886 15.3779 21.5752 15.27 21.5779L15.2593 21.5789L15.2495 21.5769C15.0979 21.5575 14.9392 21.5571 14.7778 21.5623C14.6211 21.5673 14.4517 21.5789 14.2993 21.5789H14.2974V21.5779C14.0038 21.5738 13.7133 21.5923 13.4194 21.6121C13.1295 21.6316 12.8352 21.6517 12.5405 21.6521L12.5415 21.6531L11.6499 21.7117H11.6489C11.3393 21.7289 11.0637 21.728 10.7759 21.7839L10.7671 21.7859L10.7583 21.7869C10.2531 21.82 9.74807 21.8697 9.22705 21.9441L9.22607 21.9431C9.13484 21.9577 9.04144 21.9391 8.96338 21.8894C8.88393 21.8388 8.82593 21.7606 8.80127 21.6697L8.79834 21.658C8.78179 21.5647 8.80046 21.4681 8.8501 21.3875C8.89938 21.3077 8.97632 21.2479 9.06592 21.2205C9.91629 20.945 10.7873 20.7377 11.6704 20.5994L11.6733 20.5984C12.0099 20.5537 12.3487 20.5284 12.688 20.5222H13.0288Z" fill="#FCF3D9" stroke="#FCF3D9" stroke-width="0.272727"/>
</g>
<defs>
<clipPath id="clip0_4726_6242">
<rect width="20" height="20" fill="white" transform="translate(6 6)"/>
</clipPath>
</defs>
</svg>
