<svg width="24" height="24" viewBox="0 0 24 24" fill="none" xmlns="http://www.w3.org/2000/svg">
<g clip-path="url(#clip0_2791_21494)">
<path d="M19.6572 4.3208L19.6729 4.32275L19.6875 4.32764C19.9388 4.41168 20.1661 4.5564 20.3486 4.74854C20.531 4.94062 20.6634 5.17498 20.7344 5.43018C20.8243 5.75225 20.9197 6.08336 21.0283 6.4165L21.1416 6.74951L21.1445 6.75732H21.1436C21.222 7.02394 21.3204 7.28512 21.4365 7.5376H21.4355C21.4627 7.58743 21.4819 7.64139 21.4893 7.69775C21.4972 7.75903 21.4922 7.82182 21.4756 7.88135C21.459 7.94065 21.431 7.9963 21.3926 8.04443C21.3555 8.09078 21.3085 8.12774 21.2568 8.15674L21.2578 8.15771C21.2567 8.15838 21.255 8.15804 21.2539 8.15869C21.2527 8.15933 21.2521 8.16099 21.251 8.16162L21.25 8.16064C21.1995 8.1902 21.1448 8.21152 21.0869 8.22021C21.0262 8.2293 20.9638 8.22664 20.9043 8.21143C20.8449 8.19621 20.7891 8.16843 20.7402 8.13135C20.6942 8.09637 20.6559 8.05277 20.626 8.00342V8.00439C20.4402 7.73225 20.2736 7.44743 20.1279 7.15186C19.8966 6.72933 19.7143 6.37542 19.4922 5.87061C19.4645 5.80777 19.4443 5.748 19.4258 5.69873C19.3579 5.78755 19.2593 5.92005 19.1162 6.09521L18.5186 6.87158L18.5146 6.87646C18.3563 7.06454 18.1979 7.26294 18.0498 7.46045C17.9032 7.65596 17.7658 7.86233 17.627 8.08057L17.626 8.07959C17.5673 8.17783 17.473 8.25035 17.3623 8.27979C17.2499 8.30951 17.1299 8.29319 17.0293 8.23486C16.9288 8.17648 16.8551 8.08056 16.8252 7.96826C16.7959 7.85799 16.8116 7.74055 16.8672 7.64111L17.5967 6.22119L17.6006 6.21338L18.1006 5.36377L18.1045 5.35693L18.1094 5.3501L18.5195 4.80029L18.5215 4.79834C18.6535 4.62745 18.8273 4.49329 19.0264 4.40967C19.1756 4.34699 19.3352 4.31387 19.4961 4.31201L19.6572 4.3208Z" fill="#FCF3D9" stroke="#FCF3D9" stroke-width="0.3"/>
<path d="M21.0981 15.5493C21.1547 15.5545 21.21 15.5706 21.2603 15.5972L21.2593 15.5981C21.3084 15.6227 21.3521 15.6563 21.3882 15.6978C21.4252 15.7404 21.4538 15.7896 21.4712 15.8433C21.4886 15.897 21.4947 15.954 21.4897 16.0103C21.4849 16.0643 21.4687 16.1163 21.4438 16.1646L21.4448 16.1655L20.7349 17.6353L20.73 17.646L20.6001 17.5698L20.729 17.646L20.229 18.4966L20.2241 18.5044L20.2183 18.5122L19.7983 19.0503C19.667 19.2223 19.4942 19.3584 19.2954 19.4438C19.0966 19.5293 18.8788 19.5625 18.6636 19.5396L18.646 19.5376L18.6284 19.5308C18.3734 19.4384 18.1444 19.2856 17.9624 19.0845C17.7818 18.8849 17.6534 18.6439 17.5864 18.3833L17.3921 17.7271C17.3265 17.508 17.2582 17.2891 17.1792 17.0718L17.1763 17.0659V17.0649C17.088 16.7876 16.9779 16.5178 16.8462 16.2583L16.8472 16.2573C16.8185 16.2062 16.7981 16.1505 16.7905 16.0923C16.7826 16.0311 16.7877 15.9691 16.8042 15.9097C16.8208 15.8501 16.8486 15.7939 16.8872 15.7456C16.9241 15.6995 16.9705 15.6623 17.022 15.6333V15.6323C17.0228 15.6318 17.024 15.6319 17.0249 15.6313C17.0263 15.6306 17.0274 15.6292 17.0288 15.6284V15.6294C17.0795 15.5996 17.1347 15.5786 17.1929 15.5698C17.2536 15.5607 17.316 15.5644 17.3755 15.5796C17.4348 15.5948 17.4908 15.6217 17.5396 15.6587C17.5854 15.6935 17.6229 15.7375 17.6528 15.7866H17.6548C17.8383 16.06 18.0041 16.3449 18.1519 16.6392C18.384 17.0733 18.5456 17.4169 18.7759 17.9175C18.8067 17.9845 18.8309 18.0477 18.8511 18.0991C18.919 18.012 19.0191 17.8802 19.1646 17.7046L19.1665 17.7017H19.1675L19.8071 16.9712C19.9696 16.7783 20.1232 16.6056 20.2681 16.4028C20.4162 16.1955 20.5539 15.9892 20.6812 15.7739C20.7067 15.7266 20.7406 15.6837 20.7817 15.6489C20.825 15.6124 20.8752 15.585 20.9292 15.5679C20.9835 15.5507 21.0414 15.5442 21.0981 15.5493Z" fill="#FCF3D9" stroke="#FCF3D9" stroke-width="0.3"/>
<path d="M10.0088 0.849609V0.850586C11.4027 0.935824 12.7977 1.11149 14.1826 1.25098C15.5681 1.39051 16.9495 1.49429 18.3359 1.44043C19.2473 1.32032 20.1675 1.28032 21.0859 1.32031H21.0928C21.4706 1.35408 21.838 1.46556 22.1709 1.64746C22.5038 1.82939 22.7958 2.07816 23.0283 2.37793L23.0293 2.37891C23.7409 3.314 24.1332 4.45299 24.1494 5.62793L24.1504 5.63477L24 5.62988L24.1494 5.63477C24.1017 7.23126 23.924 8.82121 23.6172 10.3887C23.5174 11.167 23.4199 11.9345 23.4199 12.7002V12.707C23.375 13.63 23.3522 14.5538 23.3271 15.4795C23.3022 16.4043 23.2749 17.3313 23.2197 18.2588L23.2188 18.2666C23.185 18.5755 23.1925 18.9543 23.1963 19.3662C23.2 19.7704 23.199 20.2021 23.1484 20.6016C23.1179 20.9785 23.0229 21.3481 22.8662 21.6924L22.8613 21.7021L22.8555 21.7119C22.6633 22.0081 22.3904 22.242 22.0703 22.3857L21.9297 22.4414C21.2464 22.6833 20.5342 22.8341 19.8115 22.8896L19.8105 22.8887C19.7538 22.8956 19.6961 22.893 19.6406 22.8789C19.5818 22.8639 19.5262 22.8371 19.4775 22.8008C19.4289 22.7644 19.3875 22.7191 19.3564 22.667C19.3254 22.6147 19.3056 22.5563 19.2969 22.4961C19.2882 22.4361 19.2908 22.3751 19.3057 22.3164C19.3206 22.2575 19.3475 22.202 19.3838 22.1533C19.4201 22.1047 19.4655 22.0633 19.5176 22.0322C19.5699 22.0011 19.6283 21.9804 19.6885 21.9717L19.6934 21.9707C20.2497 21.9106 20.8007 21.8051 21.3398 21.6553L21.3467 21.6533C21.6105 21.5926 21.8442 21.4426 22.0107 21.2295C22.1619 20.8968 22.241 20.5355 22.2402 20.1699V18.1602C22.2999 17.2402 22.3095 16.3193 22.3145 15.3945C22.3194 14.4709 22.3202 13.5418 22.3604 12.6133C22.3904 11.8128 22.4299 11.0085 22.5205 10.2031L22.5215 10.1934H22.5225C22.7952 8.69171 22.9415 7.16966 22.96 5.64355L22.9385 5.29883C22.8564 4.50034 22.5546 3.73784 22.0645 3.09668C21.823 2.82437 21.498 2.64241 21.1426 2.5791L20.9883 2.55957C20.1297 2.54181 19.2707 2.5954 18.4209 2.71875L18.4111 2.71973H16.2441C14.8392 2.66453 13.4373 2.50938 12.0479 2.38477C10.6554 2.25988 9.27105 2.16499 7.88672 2.22949L7.88281 2.23047V2.22949C6.82486 2.24869 5.76829 2.32255 4.71777 2.44922H4.71484C4.10089 2.50894 3.50507 2.69384 2.96582 2.99316C2.21827 3.68 1.76196 4.62756 1.68945 5.64062L1.6875 5.65625C1.44021 7.04109 1.41252 8.66691 1.4375 10.1592C1.46231 11.6412 1.54025 13.0058 1.5 13.8369L1.49805 13.8525C1.22704 15.6715 1.06712 17.5053 1.01953 19.3438V19.3574L0.870117 19.3398L1.01855 19.3574C0.943908 20.0032 1.11197 20.6532 1.48828 21.1826C1.90446 21.4991 2.39356 21.7056 2.91113 21.7812C3.8268 21.9127 4.74918 21.9931 5.67383 22.0205H5.6875L5.66992 22.1689L5.6875 22.0215C6.86724 22.1603 8.03845 22.1602 9.21973 22.1602H9.2207C11.9955 22.1701 14.806 22.0297 17.5938 22.0996H17.5947C17.7062 22.1034 17.8127 22.1497 17.8916 22.2285C17.9704 22.3074 18.0158 22.414 18.0195 22.5254V22.5293C18.0197 22.5872 18.0084 22.6452 17.9854 22.6982C17.9623 22.7512 17.928 22.7985 17.8857 22.8379C17.8435 22.8772 17.7937 22.9076 17.7393 22.9268C17.6879 22.9448 17.6334 22.9509 17.5791 22.9482V22.9502C16.1878 22.9402 14.798 22.9871 13.4053 23.0371C12.0135 23.0871 10.618 23.1387 9.21973 23.1387L9.2207 23.1396C8.02944 23.1497 6.81477 23.1399 5.60938 23.0596V23.0586C4.64603 23.0551 3.68395 22.989 2.72949 22.8584V22.8574C2.00075 22.7629 1.31033 22.4772 0.728516 22.0283L0.714844 22.0186L0.704102 22.0049C0.0989409 21.2677 -0.205374 20.3299 -0.149414 19.3779C-0.128841 17.5015 0.00393673 15.6279 0.25 13.7676C0.283986 12.9336 0.185323 11.5829 0.142578 10.0566C0.100179 8.54269 0.114503 6.8708 0.379883 5.42773L0.408203 5.17188C0.577366 3.89978 1.20647 2.72997 2.18164 1.88672L2.19141 1.87891L2.20117 1.87207C2.90686 1.44098 3.69944 1.1708 4.52148 1.08105L5.34766 0.990234C6.1751 0.910385 7.00552 0.863224 7.83691 0.849609H10.0088Z" fill="#FCF3D9" stroke="#FCF3D9" stroke-width="0.3"/>
<path d="M15.9331 2.6814L15.9321 2.68237C16.0429 2.69811 16.1429 2.75601 16.2114 2.84448C16.2796 2.93259 16.3104 3.04338 16.2983 3.15405C16.1884 4.27383 16.0894 5.39808 16.0894 6.53003V6.53882C16.0095 7.88586 16.0395 9.17343 16.0093 10.533C15.9789 11.9005 15.8696 13.2068 15.8696 14.53V14.5388C15.7795 16.1703 15.5282 17.887 15.3794 19.5037V21.6003C15.3844 21.6565 15.3797 21.7132 15.3638 21.7673C15.3459 21.8279 15.3159 21.8843 15.2749 21.9324C15.2339 21.9805 15.1826 22.0194 15.1255 22.0466C15.0701 22.0729 15.01 22.0864 14.9487 22.0886L14.9497 22.0896C14.9482 22.0897 14.9464 22.0885 14.9448 22.0886L14.9438 22.0896L14.9429 22.0886C14.8835 22.0916 14.8242 22.0848 14.7681 22.0652C14.7098 22.0448 14.6556 22.013 14.6099 21.9714C14.5642 21.9299 14.5273 21.8791 14.5015 21.823C14.4773 21.7705 14.4646 21.7137 14.4614 21.656C14.3804 20.9364 14.3794 20.1979 14.3794 19.4597V19.4587C14.3894 18.6256 14.4322 17.7798 14.4722 16.9421C14.5122 16.1031 14.5493 15.2707 14.5493 14.4597V14.4558H14.5503C14.5804 13.3204 14.6401 12.1873 14.6401 11.0398V11.0339C14.6702 10.2714 14.7197 9.50897 14.7798 8.7478C14.8967 7.06428 15.0833 5.39861 15.3384 3.75073L15.4517 3.04565C15.4582 2.99225 15.4754 2.94044 15.5015 2.89331C15.5291 2.8435 15.5668 2.79928 15.6118 2.7644C15.6568 2.72972 15.7082 2.70441 15.7632 2.69019C15.8184 2.67592 15.8767 2.67266 15.9331 2.6814Z" fill="#FCF3D9" stroke="#FCF3D9" stroke-width="0.3"/>
<path d="M11.6123 4.34985C11.9716 4.33295 12.3278 4.4304 12.6289 4.6272C12.8922 4.79938 13.1027 5.04004 13.2373 5.32251L13.29 5.44653L13.2949 5.45825L13.2939 5.45923C13.5515 6.36141 13.6621 7.29928 13.6201 8.23657C13.6577 8.82454 13.6571 9.41424 13.6191 10.0022C13.6114 10.4287 13.468 10.842 13.209 11.1809L13.2012 11.1907L13.1924 11.1995C12.9495 11.4285 12.6445 11.5811 12.3154 11.6379L12.3047 11.6399V11.6389C11.8192 11.6869 11.3302 11.6863 10.8447 11.6389V11.6399C10.2543 11.6202 9.6646 11.6617 9.06836 11.7092C8.47468 11.7565 7.87262 11.8088 7.27051 11.8088L7.27148 11.8098C6.73368 11.8143 6.19614 11.7734 5.66504 11.6887C5.12501 11.6359 4.59261 11.5202 4.08008 11.342L4.07324 11.3391V11.3381C3.75389 11.2092 3.47995 10.989 3.28613 10.7043L3.2793 10.6956L3.27539 10.6858C2.9993 10.1214 2.88323 9.49215 2.94043 8.86646C3.02099 7.68374 3.17205 6.5068 3.39258 5.34204C3.43535 5.0736 3.63563 4.92036 3.85938 4.92017H3.88281L3.9043 4.927C4.02192 4.9638 4.12118 5.0438 4.18262 5.15063C4.24056 5.25145 4.25921 5.36873 4.23828 5.48267C4.21294 5.76144 4.13441 6.22701 4.06445 6.74243C3.99348 7.26541 3.92969 7.85562 3.92969 8.4104V8.42017L3.92871 8.42993C3.8615 8.931 3.92942 9.44037 4.12402 9.90649C4.25415 10.0173 4.41835 10.0805 4.58984 10.0803H4.60449L4.61914 10.0833C5.013 10.1622 5.41295 10.2076 5.81445 10.22H5.82324V10.2209C6.30647 10.2651 6.79314 10.2651 7.27637 10.2209L7.28125 10.22C7.87104 10.1853 8.46253 10.1108 9.06543 10.0442C9.66612 9.97786 10.2759 9.92018 10.8896 9.92017H10.9014L11.1758 9.93677C11.4498 9.94763 11.7245 9.9419 11.998 9.92017H12.0137C12.0975 9.92236 12.1802 9.90758 12.2588 9.88013C12.2602 9.87366 12.2615 9.86806 12.2627 9.86353C12.2677 9.84503 12.2782 9.81594 12.2793 9.81274C12.2834 9.8005 12.2803 9.80633 12.2803 9.81958V9.80981C12.2904 9.66356 12.2904 9.51661 12.2803 9.37036L12.2793 9.35962H12.2803V8.2063L12.3008 7.93677C12.3361 7.3141 12.2906 6.6892 12.166 6.07739C12.1225 5.98425 12.0623 5.914 11.9795 5.86548C11.891 5.81369 11.7661 5.77955 11.5898 5.77954H9.44727L9.05273 5.80396C8.65861 5.83284 8.26359 5.87472 7.86426 5.91333C7.33381 5.96462 6.79756 6.01001 6.25977 6.01001H4.85449L4.83984 6.00708C4.70924 5.98006 4.59319 5.90463 4.51562 5.79614C4.44433 5.69633 4.41194 5.57511 4.41992 5.45337C4.40803 5.32026 4.44941 5.18754 4.53418 5.08423C4.61896 4.98099 4.7412 4.91495 4.87402 4.90063L4.88379 4.89966H4.89355C5.33083 4.90969 5.76853 4.89044 6.20312 4.84106L6.20703 4.84009C6.73259 4.79546 7.27161 4.72439 7.80664 4.65063C8.34038 4.57706 8.87153 4.50079 9.375 4.45044H9.37793L10.6582 4.35083L10.6699 4.34985H11.6123Z" fill="#FCF3D9" stroke="#FCF3D9" stroke-width="0.3"/>
<path d="M7.06104 13.7107C7.59402 13.6805 8.12862 13.6808 8.66162 13.7107L8.6626 13.7097C9.19967 13.7199 9.84576 13.7805 10.2681 13.8308C10.4723 13.8551 10.7018 13.8678 10.9458 13.8816C11.1879 13.8953 11.4432 13.9104 11.689 13.9412H11.688C11.9158 13.961 12.1411 14.003 12.3608 14.0662H12.3599C12.4159 14.079 12.4696 14.1011 12.5171 14.1335C12.5673 14.1679 12.61 14.2124 12.6431 14.2634C12.6762 14.3144 12.6986 14.3716 12.7095 14.4314C12.7192 14.4848 12.7178 14.5392 12.7085 14.5925C12.7122 14.6562 12.7055 14.7201 12.6831 14.78C12.657 14.8497 12.6145 14.9121 12.5591 14.9617C12.5036 15.0113 12.4369 15.047 12.3647 15.0652C12.3 15.0815 12.2329 15.0805 12.1675 15.0681V15.0701C11.9894 15.0555 11.8104 15.0555 11.6323 15.0701L11.6196 15.071V15.0701C11.3869 15.0701 11.1431 15.0901 10.8999 15.1101C10.6594 15.1299 10.4172 15.1501 10.1997 15.1501H3.99951V15.1492C3.94407 15.1533 3.88796 15.149 3.83447 15.1335C3.77574 15.1165 3.7211 15.0878 3.67334 15.0496C3.62546 15.0113 3.58573 14.9636 3.55615 14.9099C3.5267 14.8564 3.50728 14.7978 3.50049 14.7371C3.49373 14.6762 3.49911 14.6142 3.51611 14.5554C3.53318 14.4965 3.56179 14.4412 3.6001 14.3933C3.6384 14.3454 3.68603 14.3057 3.73975 14.2761C3.78801 14.2496 3.84065 14.2326 3.89502 14.2244L4.67822 14.0544C5.4641 13.8982 6.2578 13.7831 7.05615 13.7107H7.06104Z" fill="#FCF3D9" stroke="#FCF3D9" stroke-width="0.3"/>
<path d="M8.43311 17.4407H8.43506C8.97262 17.4582 9.50916 17.5046 10.0415 17.5813L10.0405 17.5823C10.2159 17.6016 10.4053 17.6131 10.605 17.6282C10.8041 17.6432 11.0114 17.6607 11.2124 17.6917H11.2114C11.3076 17.7056 11.4032 17.7236 11.4976 17.7463L11.7778 17.8284L11.7886 17.8313L11.7876 17.8323C11.894 17.8771 11.9803 17.9594 12.0298 18.0637C12.0792 18.1681 12.0888 18.2869 12.0562 18.3977C12.0235 18.5085 11.9512 18.6035 11.853 18.6643C11.7548 18.7251 11.6376 18.7478 11.5239 18.7278L11.5112 18.7258V18.7249C11.3848 18.6917 11.2542 18.6766 11.1235 18.6799H11.1118L11.1011 18.679C10.9182 18.6555 10.7274 18.6552 10.5337 18.6614C10.3448 18.6674 10.1421 18.6799 9.95947 18.6799H9.95752C9.60444 18.675 9.25467 18.6972 8.90186 18.7209C8.55374 18.7444 8.20126 18.7684 7.84814 18.7688L7.84912 18.7698L6.77979 18.8401H6.77783C6.4073 18.8607 6.07461 18.8596 5.72803 18.927L5.71924 18.929L5.70947 18.9299C5.10282 18.9697 4.49633 19.029 3.87061 19.1184L3.86963 19.1174C3.76345 19.1346 3.65488 19.1136 3.56396 19.0559C3.47132 18.997 3.40316 18.9051 3.37451 18.7991L3.37158 18.7864C3.35229 18.6775 3.37404 18.565 3.43213 18.4709C3.48951 18.3781 3.57889 18.3096 3.68311 18.2776L4.06689 18.1575C4.96437 17.8862 5.87957 17.6767 6.80615 17.5315H6.81006C7.34785 17.4601 7.8907 17.43 8.43311 17.4407Z" fill="#FCF3D9" stroke="#FCF3D9" stroke-width="0.3"/>
</g>
<defs>
<clipPath id="clip0_2791_21494">
<rect width="24" height="24" fill="white"/>
</clipPath>
</defs>
</svg>
