<svg width="16" height="16" viewBox="0 0 16 16" fill="none" xmlns="http://www.w3.org/2000/svg">
<path d="M13.333 6.33335V4.80002C13.333 4.05328 13.333 3.67992 13.1877 3.3947C13.0599 3.14382 12.8559 2.93984 12.605 2.81201C12.3198 2.66669 11.9464 2.66669 11.1997 2.66669H3.46634C2.7196 2.66669 2.34624 2.66669 2.06102 2.81201C1.81014 2.93984 1.60616 3.14382 1.47833 3.3947C1.33301 3.67992 1.33301 4.05328 1.33301 4.80002V11.2C1.33301 11.9468 1.33301 12.3201 1.47833 12.6053C1.60616 12.8562 1.81014 13.0602 2.06102 13.188C2.34624 13.3334 2.7196 13.3334 3.46634 13.3334L11.1997 13.3334C11.9464 13.3334 12.3198 13.3334 12.605 13.188C12.8559 13.0602 13.0599 12.8562 13.1877 12.6053C13.333 12.3201 13.333 11.9468 13.333 11.2V9.66669M9.99967 8.00002C9.99967 7.69025 9.99967 7.53537 10.0253 7.40657C10.1305 6.87765 10.544 6.46418 11.0729 6.35897C11.2017 6.33335 11.3566 6.33335 11.6663 6.33335H12.9997C13.3094 6.33335 13.4643 6.33335 13.5931 6.35897C14.122 6.46418 14.5355 6.87765 14.6407 7.40657C14.6663 7.53537 14.6663 7.69025 14.6663 8.00002C14.6663 8.30979 14.6663 8.46468 14.6407 8.59347C14.5355 9.12239 14.122 9.53586 13.5931 9.64107C13.4643 9.66669 13.3094 9.66669 12.9997 9.66669H11.6663C11.3566 9.66669 11.2017 9.66669 11.0729 9.64107C10.544 9.53586 10.1305 9.12239 10.0253 8.59347C9.99967 8.46467 9.99967 8.30979 9.99967 8.00002Z" stroke="#98A2B3" stroke-width="1.5" stroke-linecap="round" stroke-linejoin="round"/>
</svg>
